ISO-10303-21;
HEADER;
/* Generated by software containing ST-Developer
 * from STEP Tools, Inc. (www.steptools.com) 
 */

FILE_DESCRIPTION(
/* description */ (''),
/* implementation_level */ '2;1');

FILE_NAME(
/* name */ 'Drone v1.step',
/* time_stamp */ '2026-10-05T17:54:05+04:00',
/* author */ (''),
/* organization */ (''),
/* preprocessor_version */ 'ST-DEVELOPER v20.2',
/* originating_system */ 'Autodesk Translation Framework v15.15.0.0',
/* authorisation */ '');

FILE_SCHEMA (('AUTOMOTIVE_DESIGN { 1 0 10303 214 3 1 1 }'));
ENDSEC;

DATA;
#10=MECHANICAL_DESIGN_GEOMETRIC_PRESENTATION_REPRESENTATION('',(#13),#1754);
#11=SHAPE_REPRESENTATION_RELATIONSHIP('SRR','None',#1761,#12);
#12=ADVANCED_BREP_SHAPE_REPRESENTATION('',(#14),#1753);
#13=STYLED_ITEM('',(#1771),#14);
#14=MANIFOLD_SOLID_BREP('Body2',#1034);
#15=CYLINDRICAL_SURFACE('',#1057,6.);
#16=CYLINDRICAL_SURFACE('',#1060,16.);
#17=CYLINDRICAL_SURFACE('',#1063,6.);
#18=CYLINDRICAL_SURFACE('',#1066,16.);
#19=CYLINDRICAL_SURFACE('',#1069,6.);
#20=CYLINDRICAL_SURFACE('',#1073,6.);
#21=CYLINDRICAL_SURFACE('',#1077,6.);
#22=CYLINDRICAL_SURFACE('',#1081,6.);
#23=CYLINDRICAL_SURFACE('',#1085,6.);
#24=CYLINDRICAL_SURFACE('',#1089,2.);
#25=CYLINDRICAL_SURFACE('',#1091,2.);
#26=CYLINDRICAL_SURFACE('',#1093,2.);
#27=CYLINDRICAL_SURFACE('',#1095,2.);
#28=CYLINDRICAL_SURFACE('',#1116,1.99999999999999);
#29=CYLINDRICAL_SURFACE('',#1118,2.00000000000001);
#30=CYLINDRICAL_SURFACE('',#1120,2.);
#31=CYLINDRICAL_SURFACE('',#1122,1.99999999999999);
#32=CYLINDRICAL_SURFACE('',#1124,1.99999999999999);
#33=CYLINDRICAL_SURFACE('',#1126,2.00000000000001);
#34=CYLINDRICAL_SURFACE('',#1128,2.00000000000001);
#35=CYLINDRICAL_SURFACE('',#1130,1.99999999999999);
#36=CYLINDRICAL_SURFACE('',#1132,2.);
#37=CYLINDRICAL_SURFACE('',#1134,1.99999999999999);
#38=CYLINDRICAL_SURFACE('',#1136,2.);
#39=CYLINDRICAL_SURFACE('',#1138,1.99999999999999);
#40=CYLINDRICAL_SURFACE('',#1140,1.99999999999999);
#41=CYLINDRICAL_SURFACE('',#1142,1.99999999999999);
#42=CYLINDRICAL_SURFACE('',#1144,1.99999999999999);
#43=CYLINDRICAL_SURFACE('',#1146,1.99999999999999);
#44=CYLINDRICAL_SURFACE('',#1151,16.);
#45=CYLINDRICAL_SURFACE('',#1157,16.);
#46=FACE_BOUND('',#204,.T.);
#47=FACE_BOUND('',#205,.T.);
#48=FACE_BOUND('',#206,.T.);
#49=FACE_BOUND('',#207,.T.);
#50=FACE_BOUND('',#227,.T.);
#51=FACE_BOUND('',#228,.T.);
#52=FACE_BOUND('',#229,.T.);
#53=FACE_BOUND('',#230,.T.);
#54=FACE_BOUND('',#231,.T.);
#55=FACE_BOUND('',#232,.T.);
#56=FACE_BOUND('',#233,.T.);
#57=FACE_BOUND('',#234,.T.);
#58=FACE_BOUND('',#235,.T.);
#59=FACE_BOUND('',#236,.T.);
#60=FACE_BOUND('',#237,.T.);
#61=FACE_BOUND('',#238,.T.);
#62=FACE_BOUND('',#239,.T.);
#63=FACE_BOUND('',#240,.T.);
#64=FACE_BOUND('',#241,.T.);
#65=FACE_BOUND('',#242,.T.);
#66=FACE_BOUND('',#243,.T.);
#67=FACE_BOUND('',#244,.T.);
#68=FACE_BOUND('',#245,.T.);
#69=FACE_BOUND('',#246,.T.);
#70=FACE_BOUND('',#273,.T.);
#71=FACE_BOUND('',#274,.T.);
#72=FACE_BOUND('',#275,.T.);
#73=FACE_BOUND('',#276,.T.);
#74=FACE_BOUND('',#277,.T.);
#75=FACE_BOUND('',#278,.T.);
#76=FACE_BOUND('',#279,.T.);
#77=FACE_BOUND('',#280,.T.);
#78=FACE_BOUND('',#281,.T.);
#79=FACE_BOUND('',#282,.T.);
#80=FACE_BOUND('',#283,.T.);
#81=FACE_BOUND('',#284,.T.);
#82=FACE_BOUND('',#285,.T.);
#83=FACE_BOUND('',#286,.T.);
#84=FACE_BOUND('',#287,.T.);
#85=FACE_BOUND('',#288,.T.);
#86=FACE_BOUND('',#289,.T.);
#87=CIRCLE('',#1053,2.);
#88=CIRCLE('',#1054,2.);
#89=CIRCLE('',#1055,2.);
#90=CIRCLE('',#1056,2.);
#91=CIRCLE('',#1058,6.);
#92=CIRCLE('',#1059,6.);
#93=CIRCLE('',#1061,16.);
#94=CIRCLE('',#1062,16.);
#95=CIRCLE('',#1064,6.);
#96=CIRCLE('',#1065,6.);
#97=CIRCLE('',#1067,16.);
#98=CIRCLE('',#1068,16.);
#99=CIRCLE('',#1070,6.);
#100=CIRCLE('',#1071,6.);
#101=CIRCLE('',#1074,6.);
#102=CIRCLE('',#1075,6.);
#103=CIRCLE('',#1078,6.);
#104=CIRCLE('',#1079,6.);
#105=CIRCLE('',#1082,6.);
#106=CIRCLE('',#1083,6.);
#107=CIRCLE('',#1086,6.);
#108=CIRCLE('',#1087,6.);
#109=CIRCLE('',#1090,2.);
#110=CIRCLE('',#1092,2.);
#111=CIRCLE('',#1094,2.);
#112=CIRCLE('',#1096,2.);
#113=CIRCLE('',#1098,16.);
#114=CIRCLE('',#1099,16.);
#115=CIRCLE('',#1100,1.99999999999999);
#116=CIRCLE('',#1101,1.99999999999999);
#117=CIRCLE('',#1102,1.99999999999999);
#118=CIRCLE('',#1103,1.99999999999999);
#119=CIRCLE('',#1104,1.99999999999999);
#120=CIRCLE('',#1105,2.);
#121=CIRCLE('',#1106,1.99999999999999);
#122=CIRCLE('',#1107,2.);
#123=CIRCLE('',#1108,1.99999999999999);
#124=CIRCLE('',#1109,2.00000000000001);
#125=CIRCLE('',#1110,2.00000000000001);
#126=CIRCLE('',#1111,1.99999999999999);
#127=CIRCLE('',#1112,1.99999999999999);
#128=CIRCLE('',#1113,2.);
#129=CIRCLE('',#1114,2.00000000000001);
#130=CIRCLE('',#1115,1.99999999999999);
#131=CIRCLE('',#1117,1.99999999999999);
#132=CIRCLE('',#1119,2.00000000000001);
#133=CIRCLE('',#1121,2.);
#134=CIRCLE('',#1123,1.99999999999999);
#135=CIRCLE('',#1125,1.99999999999999);
#136=CIRCLE('',#1127,2.00000000000001);
#137=CIRCLE('',#1129,2.00000000000001);
#138=CIRCLE('',#1131,1.99999999999999);
#139=CIRCLE('',#1133,2.);
#140=CIRCLE('',#1135,1.99999999999999);
#141=CIRCLE('',#1137,2.);
#142=CIRCLE('',#1139,1.99999999999999);
#143=CIRCLE('',#1141,1.99999999999999);
#144=CIRCLE('',#1143,1.99999999999999);
#145=CIRCLE('',#1145,1.99999999999999);
#146=CIRCLE('',#1147,1.99999999999999);
#147=CIRCLE('',#1152,16.);
#148=CIRCLE('',#1158,16.);
#149=FACE_OUTER_BOUND('',#199,.T.);
#150=FACE_OUTER_BOUND('',#200,.T.);
#151=FACE_OUTER_BOUND('',#201,.T.);
#152=FACE_OUTER_BOUND('',#202,.T.);
#153=FACE_OUTER_BOUND('',#203,.T.);
#154=FACE_OUTER_BOUND('',#208,.T.);
#155=FACE_OUTER_BOUND('',#209,.T.);
#156=FACE_OUTER_BOUND('',#210,.T.);
#157=FACE_OUTER_BOUND('',#211,.T.);
#158=FACE_OUTER_BOUND('',#212,.T.);
#159=FACE_OUTER_BOUND('',#213,.T.);
#160=FACE_OUTER_BOUND('',#214,.T.);
#161=FACE_OUTER_BOUND('',#215,.T.);
#162=FACE_OUTER_BOUND('',#216,.T.);
#163=FACE_OUTER_BOUND('',#217,.T.);
#164=FACE_OUTER_BOUND('',#218,.T.);
#165=FACE_OUTER_BOUND('',#219,.T.);
#166=FACE_OUTER_BOUND('',#220,.T.);
#167=FACE_OUTER_BOUND('',#221,.T.);
#168=FACE_OUTER_BOUND('',#222,.T.);
#169=FACE_OUTER_BOUND('',#223,.T.);
#170=FACE_OUTER_BOUND('',#224,.T.);
#171=FACE_OUTER_BOUND('',#225,.T.);
#172=FACE_OUTER_BOUND('',#226,.T.);
#173=FACE_OUTER_BOUND('',#247,.T.);
#174=FACE_OUTER_BOUND('',#248,.T.);
#175=FACE_OUTER_BOUND('',#249,.T.);
#176=FACE_OUTER_BOUND('',#250,.T.);
#177=FACE_OUTER_BOUND('',#251,.T.);
#178=FACE_OUTER_BOUND('',#252,.T.);
#179=FACE_OUTER_BOUND('',#253,.T.);
#180=FACE_OUTER_BOUND('',#254,.T.);
#181=FACE_OUTER_BOUND('',#255,.T.);
#182=FACE_OUTER_BOUND('',#256,.T.);
#183=FACE_OUTER_BOUND('',#257,.T.);
#184=FACE_OUTER_BOUND('',#258,.T.);
#185=FACE_OUTER_BOUND('',#259,.T.);
#186=FACE_OUTER_BOUND('',#260,.T.);
#187=FACE_OUTER_BOUND('',#261,.T.);
#188=FACE_OUTER_BOUND('',#262,.T.);
#189=FACE_OUTER_BOUND('',#263,.T.);
#190=FACE_OUTER_BOUND('',#264,.T.);
#191=FACE_OUTER_BOUND('',#265,.T.);
#192=FACE_OUTER_BOUND('',#266,.T.);
#193=FACE_OUTER_BOUND('',#267,.T.);
#194=FACE_OUTER_BOUND('',#268,.T.);
#195=FACE_OUTER_BOUND('',#269,.T.);
#196=FACE_OUTER_BOUND('',#270,.T.);
#197=FACE_OUTER_BOUND('',#271,.T.);
#198=FACE_OUTER_BOUND('',#272,.T.);
#199=EDGE_LOOP('',(#683,#684,#685,#686));
#200=EDGE_LOOP('',(#687,#688,#689,#690));
#201=EDGE_LOOP('',(#691,#692,#693,#694));
#202=EDGE_LOOP('',(#695,#696,#697,#698));
#203=EDGE_LOOP('',(#699,#700,#701,#702));
#204=EDGE_LOOP('',(#703));
#205=EDGE_LOOP('',(#704));
#206=EDGE_LOOP('',(#705));
#207=EDGE_LOOP('',(#706));
#208=EDGE_LOOP('',(#707,#708,#709,#710));
#209=EDGE_LOOP('',(#711,#712,#713,#714));
#210=EDGE_LOOP('',(#715,#716,#717,#718));
#211=EDGE_LOOP('',(#719,#720,#721,#722));
#212=EDGE_LOOP('',(#723,#724,#725,#726));
#213=EDGE_LOOP('',(#727,#728,#729,#730));
#214=EDGE_LOOP('',(#731,#732,#733,#734));
#215=EDGE_LOOP('',(#735,#736,#737,#738));
#216=EDGE_LOOP('',(#739,#740,#741,#742));
#217=EDGE_LOOP('',(#743,#744,#745,#746));
#218=EDGE_LOOP('',(#747,#748,#749,#750));
#219=EDGE_LOOP('',(#751,#752,#753,#754));
#220=EDGE_LOOP('',(#755,#756,#757,#758));
#221=EDGE_LOOP('',(#759,#760,#761,#762));
#222=EDGE_LOOP('',(#763,#764,#765,#766));
#223=EDGE_LOOP('',(#767,#768,#769,#770));
#224=EDGE_LOOP('',(#771,#772,#773,#774));
#225=EDGE_LOOP('',(#775,#776,#777,#778));
#226=EDGE_LOOP('',(#779,#780,#781,#782,#783,#784,#785,#786,#787,#788,#789,
#790,#791,#792,#793,#794,#795,#796,#797,#798,#799,#800,#801));
#227=EDGE_LOOP('',(#802));
#228=EDGE_LOOP('',(#803));
#229=EDGE_LOOP('',(#804));
#230=EDGE_LOOP('',(#805));
#231=EDGE_LOOP('',(#806));
#232=EDGE_LOOP('',(#807));
#233=EDGE_LOOP('',(#808));
#234=EDGE_LOOP('',(#809));
#235=EDGE_LOOP('',(#810));
#236=EDGE_LOOP('',(#811));
#237=EDGE_LOOP('',(#812));
#238=EDGE_LOOP('',(#813));
#239=EDGE_LOOP('',(#814));
#240=EDGE_LOOP('',(#815));
#241=EDGE_LOOP('',(#816));
#242=EDGE_LOOP('',(#817));
#243=EDGE_LOOP('',(#818));
#244=EDGE_LOOP('',(#819));
#245=EDGE_LOOP('',(#820));
#246=EDGE_LOOP('',(#821));
#247=EDGE_LOOP('',(#822,#823,#824,#825));
#248=EDGE_LOOP('',(#826,#827,#828,#829));
#249=EDGE_LOOP('',(#830,#831,#832,#833));
#250=EDGE_LOOP('',(#834,#835,#836,#837));
#251=EDGE_LOOP('',(#838,#839,#840,#841));
#252=EDGE_LOOP('',(#842,#843,#844,#845));
#253=EDGE_LOOP('',(#846,#847,#848,#849));
#254=EDGE_LOOP('',(#850,#851,#852,#853));
#255=EDGE_LOOP('',(#854,#855,#856,#857));
#256=EDGE_LOOP('',(#858,#859,#860,#861));
#257=EDGE_LOOP('',(#862,#863,#864,#865));
#258=EDGE_LOOP('',(#866,#867,#868,#869));
#259=EDGE_LOOP('',(#870,#871,#872,#873));
#260=EDGE_LOOP('',(#874,#875,#876,#877));
#261=EDGE_LOOP('',(#878,#879,#880,#881));
#262=EDGE_LOOP('',(#882,#883,#884,#885));
#263=EDGE_LOOP('',(#886,#887,#888,#889));
#264=EDGE_LOOP('',(#890,#891,#892,#893));
#265=EDGE_LOOP('',(#894,#895,#896,#897));
#266=EDGE_LOOP('',(#898,#899,#900,#901));
#267=EDGE_LOOP('',(#902,#903,#904,#905));
#268=EDGE_LOOP('',(#906,#907,#908,#909));
#269=EDGE_LOOP('',(#910,#911,#912,#913));
#270=EDGE_LOOP('',(#914,#915,#916,#917));
#271=EDGE_LOOP('',(#918,#919,#920,#921));
#272=EDGE_LOOP('',(#922,#923,#924,#925,#926,#927,#928,#929,#930,#931,#932,
#933,#934,#935,#936,#937,#938,#939,#940,#941,#942,#943,#944));
#273=EDGE_LOOP('',(#945));
#274=EDGE_LOOP('',(#946));
#275=EDGE_LOOP('',(#947));
#276=EDGE_LOOP('',(#948));
#277=EDGE_LOOP('',(#949));
#278=EDGE_LOOP('',(#950));
#279=EDGE_LOOP('',(#951));
#280=EDGE_LOOP('',(#952));
#281=EDGE_LOOP('',(#953));
#282=EDGE_LOOP('',(#954));
#283=EDGE_LOOP('',(#955));
#284=EDGE_LOOP('',(#956));
#285=EDGE_LOOP('',(#957));
#286=EDGE_LOOP('',(#958));
#287=EDGE_LOOP('',(#959));
#288=EDGE_LOOP('',(#960));
#289=EDGE_LOOP('',(#961,#962,#963,#964));
#290=LINE('',#1469,#369);
#291=LINE('',#1471,#370);
#292=LINE('',#1473,#371);
#293=LINE('',#1474,#372);
#294=LINE('',#1477,#373);
#295=LINE('',#1479,#374);
#296=LINE('',#1480,#375);
#297=LINE('',#1483,#376);
#298=LINE('',#1485,#377);
#299=LINE('',#1486,#378);
#300=LINE('',#1488,#379);
#301=LINE('',#1489,#380);
#302=LINE('',#1504,#381);
#303=LINE('',#1507,#382);
#304=LINE('',#1512,#383);
#305=LINE('',#1519,#384);
#306=LINE('',#1522,#385);
#307=LINE('',#1527,#386);
#308=LINE('',#1533,#387);
#309=LINE('',#1537,#388);
#310=LINE('',#1539,#389);
#311=LINE('',#1540,#390);
#312=LINE('',#1545,#391);
#313=LINE('',#1549,#392);
#314=LINE('',#1551,#393);
#315=LINE('',#1552,#394);
#316=LINE('',#1557,#395);
#317=LINE('',#1561,#396);
#318=LINE('',#1563,#397);
#319=LINE('',#1564,#398);
#320=LINE('',#1570,#399);
#321=LINE('',#1573,#400);
#322=LINE('',#1575,#401);
#323=LINE('',#1576,#402);
#324=LINE('',#1581,#403);
#325=LINE('',#1585,#404);
#326=LINE('',#1587,#405);
#327=LINE('',#1588,#406);
#328=LINE('',#1591,#407);
#329=LINE('',#1595,#408);
#330=LINE('',#1599,#409);
#331=LINE('',#1603,#410);
#332=LINE('',#1607,#411);
#333=LINE('',#1609,#412);
#334=LINE('',#1612,#413);
#335=LINE('',#1614,#414);
#336=LINE('',#1616,#415);
#337=LINE('',#1618,#416);
#338=LINE('',#1621,#417);
#339=LINE('',#1657,#418);
#340=LINE('',#1661,#419);
#341=LINE('',#1665,#420);
#342=LINE('',#1669,#421);
#343=LINE('',#1673,#422);
#344=LINE('',#1677,#423);
#345=LINE('',#1681,#424);
#346=LINE('',#1685,#425);
#347=LINE('',#1689,#426);
#348=LINE('',#1693,#427);
#349=LINE('',#1697,#428);
#350=LINE('',#1701,#429);
#351=LINE('',#1705,#430);
#352=LINE('',#1709,#431);
#353=LINE('',#1713,#432);
#354=LINE('',#1717,#433);
#355=LINE('',#1720,#434);
#356=LINE('',#1721,#435);
#357=LINE('',#1724,#436);
#358=LINE('',#1725,#437);
#359=LINE('',#1728,#438);
#360=LINE('',#1729,#439);
#361=LINE('',#1733,#440);
#362=LINE('',#1735,#441);
#363=LINE('',#1738,#442);
#364=LINE('',#1739,#443);
#365=LINE('',#1742,#444);
#366=LINE('',#1743,#445);
#367=LINE('',#1746,#446);
#368=LINE('',#1747,#447);
#369=VECTOR('',#1164,10.);
#370=VECTOR('',#1165,10.);
#371=VECTOR('',#1166,10.);
#372=VECTOR('',#1167,10.);
#373=VECTOR('',#1170,10.);
#374=VECTOR('',#1171,10.);
#375=VECTOR('',#1172,10.);
#376=VECTOR('',#1175,10.);
#377=VECTOR('',#1176,10.);
#378=VECTOR('',#1177,10.);
#379=VECTOR('',#1180,10.);
#380=VECTOR('',#1181,10.);
#381=VECTOR('',#1196,10.);
#382=VECTOR('',#1199,10.);
#383=VECTOR('',#1204,10.);
#384=VECTOR('',#1211,10.);
#385=VECTOR('',#1214,10.);
#386=VECTOR('',#1219,10.);
#387=VECTOR('',#1226,10.);
#388=VECTOR('',#1231,10.);
#389=VECTOR('',#1232,10.);
#390=VECTOR('',#1233,10.);
#391=VECTOR('',#1238,10.);
#392=VECTOR('',#1243,10.);
#393=VECTOR('',#1244,10.);
#394=VECTOR('',#1245,10.);
#395=VECTOR('',#1250,10.);
#396=VECTOR('',#1255,10.);
#397=VECTOR('',#1256,10.);
#398=VECTOR('',#1257,10.);
#399=VECTOR('',#1262,10.);
#400=VECTOR('',#1265,10.);
#401=VECTOR('',#1268,10.);
#402=VECTOR('',#1269,10.);
#403=VECTOR('',#1274,10.);
#404=VECTOR('',#1279,10.);
#405=VECTOR('',#1280,10.);
#406=VECTOR('',#1281,10.);
#407=VECTOR('',#1284,2.);
#408=VECTOR('',#1289,2.);
#409=VECTOR('',#1294,2.);
#410=VECTOR('',#1299,2.);
#411=VECTOR('',#1304,10.);
#412=VECTOR('',#1305,10.);
#413=VECTOR('',#1308,10.);
#414=VECTOR('',#1309,10.);
#415=VECTOR('',#1310,10.);
#416=VECTOR('',#1311,10.);
#417=VECTOR('',#1314,10.);
#418=VECTOR('',#1351,1.99999999999999);
#419=VECTOR('',#1356,2.00000000000001);
#420=VECTOR('',#1361,2.);
#421=VECTOR('',#1366,1.99999999999999);
#422=VECTOR('',#1371,1.99999999999999);
#423=VECTOR('',#1376,2.00000000000001);
#424=VECTOR('',#1381,2.00000000000001);
#425=VECTOR('',#1386,1.99999999999999);
#426=VECTOR('',#1391,2.);
#427=VECTOR('',#1396,1.99999999999999);
#428=VECTOR('',#1401,2.);
#429=VECTOR('',#1406,1.99999999999999);
#430=VECTOR('',#1411,1.99999999999999);
#431=VECTOR('',#1416,1.99999999999999);
#432=VECTOR('',#1421,1.99999999999999);
#433=VECTOR('',#1426,1.99999999999999);
#434=VECTOR('',#1429,10.);
#435=VECTOR('',#1430,10.);
#436=VECTOR('',#1433,10.);
#437=VECTOR('',#1434,10.);
#438=VECTOR('',#1437,10.);
#439=VECTOR('',#1438,10.);
#440=VECTOR('',#1443,10.);
#441=VECTOR('',#1446,10.);
#442=VECTOR('',#1449,10.);
#443=VECTOR('',#1450,10.);
#444=VECTOR('',#1453,10.);
#445=VECTOR('',#1454,10.);
#446=VECTOR('',#1457,10.);
#447=VECTOR('',#1458,10.);
#448=VERTEX_POINT('',#1467);
#449=VERTEX_POINT('',#1468);
#450=VERTEX_POINT('',#1470);
#451=VERTEX_POINT('',#1472);
#452=VERTEX_POINT('',#1476);
#453=VERTEX_POINT('',#1478);
#454=VERTEX_POINT('',#1482);
#455=VERTEX_POINT('',#1484);
#456=VERTEX_POINT('',#1491);
#457=VERTEX_POINT('',#1493);
#458=VERTEX_POINT('',#1495);
#459=VERTEX_POINT('',#1497);
#460=VERTEX_POINT('',#1500);
#461=VERTEX_POINT('',#1501);
#462=VERTEX_POINT('',#1503);
#463=VERTEX_POINT('',#1505);
#464=VERTEX_POINT('',#1509);
#465=VERTEX_POINT('',#1511);
#466=VERTEX_POINT('',#1515);
#467=VERTEX_POINT('',#1516);
#468=VERTEX_POINT('',#1518);
#469=VERTEX_POINT('',#1520);
#470=VERTEX_POINT('',#1524);
#471=VERTEX_POINT('',#1526);
#472=VERTEX_POINT('',#1530);
#473=VERTEX_POINT('',#1532);
#474=VERTEX_POINT('',#1536);
#475=VERTEX_POINT('',#1538);
#476=VERTEX_POINT('',#1542);
#477=VERTEX_POINT('',#1544);
#478=VERTEX_POINT('',#1548);
#479=VERTEX_POINT('',#1550);
#480=VERTEX_POINT('',#1554);
#481=VERTEX_POINT('',#1556);
#482=VERTEX_POINT('',#1560);
#483=VERTEX_POINT('',#1562);
#484=VERTEX_POINT('',#1566);
#485=VERTEX_POINT('',#1567);
#486=VERTEX_POINT('',#1569);
#487=VERTEX_POINT('',#1571);
#488=VERTEX_POINT('',#1578);
#489=VERTEX_POINT('',#1580);
#490=VERTEX_POINT('',#1584);
#491=VERTEX_POINT('',#1586);
#492=VERTEX_POINT('',#1590);
#493=VERTEX_POINT('',#1594);
#494=VERTEX_POINT('',#1598);
#495=VERTEX_POINT('',#1602);
#496=VERTEX_POINT('',#1606);
#497=VERTEX_POINT('',#1608);
#498=VERTEX_POINT('',#1610);
#499=VERTEX_POINT('',#1613);
#500=VERTEX_POINT('',#1615);
#501=VERTEX_POINT('',#1617);
#502=VERTEX_POINT('',#1619);
#503=VERTEX_POINT('',#1622);
#504=VERTEX_POINT('',#1624);
#505=VERTEX_POINT('',#1626);
#506=VERTEX_POINT('',#1628);
#507=VERTEX_POINT('',#1630);
#508=VERTEX_POINT('',#1632);
#509=VERTEX_POINT('',#1634);
#510=VERTEX_POINT('',#1636);
#511=VERTEX_POINT('',#1638);
#512=VERTEX_POINT('',#1640);
#513=VERTEX_POINT('',#1642);
#514=VERTEX_POINT('',#1644);
#515=VERTEX_POINT('',#1646);
#516=VERTEX_POINT('',#1648);
#517=VERTEX_POINT('',#1650);
#518=VERTEX_POINT('',#1652);
#519=VERTEX_POINT('',#1655);
#520=VERTEX_POINT('',#1659);
#521=VERTEX_POINT('',#1663);
#522=VERTEX_POINT('',#1667);
#523=VERTEX_POINT('',#1671);
#524=VERTEX_POINT('',#1675);
#525=VERTEX_POINT('',#1679);
#526=VERTEX_POINT('',#1683);
#527=VERTEX_POINT('',#1687);
#528=VERTEX_POINT('',#1691);
#529=VERTEX_POINT('',#1695);
#530=VERTEX_POINT('',#1699);
#531=VERTEX_POINT('',#1703);
#532=VERTEX_POINT('',#1707);
#533=VERTEX_POINT('',#1711);
#534=VERTEX_POINT('',#1715);
#535=VERTEX_POINT('',#1719);
#536=VERTEX_POINT('',#1723);
#537=VERTEX_POINT('',#1727);
#538=VERTEX_POINT('',#1731);
#539=VERTEX_POINT('',#1737);
#540=VERTEX_POINT('',#1741);
#541=VERTEX_POINT('',#1745);
#542=EDGE_CURVE('',#448,#449,#290,.T.);
#543=EDGE_CURVE('',#448,#450,#291,.T.);
#544=EDGE_CURVE('',#450,#451,#292,.T.);
#545=EDGE_CURVE('',#449,#451,#293,.T.);
#546=EDGE_CURVE('',#452,#448,#294,.T.);
#547=EDGE_CURVE('',#452,#453,#295,.T.);
#548=EDGE_CURVE('',#453,#450,#296,.T.);
#549=EDGE_CURVE('',#454,#452,#297,.T.);
#550=EDGE_CURVE('',#454,#455,#298,.T.);
#551=EDGE_CURVE('',#455,#453,#299,.T.);
#552=EDGE_CURVE('',#449,#454,#300,.T.);
#553=EDGE_CURVE('',#451,#455,#301,.T.);
#554=EDGE_CURVE('',#456,#456,#87,.T.);
#555=EDGE_CURVE('',#457,#457,#88,.T.);
#556=EDGE_CURVE('',#458,#458,#89,.T.);
#557=EDGE_CURVE('',#459,#459,#90,.T.);
#558=EDGE_CURVE('',#460,#461,#91,.T.);
#559=EDGE_CURVE('',#461,#462,#302,.T.);
#560=EDGE_CURVE('',#462,#463,#92,.T.);
#561=EDGE_CURVE('',#463,#460,#303,.T.);
#562=EDGE_CURVE('',#461,#464,#93,.T.);
#563=EDGE_CURVE('',#465,#464,#304,.T.);
#564=EDGE_CURVE('',#462,#465,#94,.T.);
#565=EDGE_CURVE('',#466,#467,#95,.T.);
#566=EDGE_CURVE('',#467,#468,#305,.T.);
#567=EDGE_CURVE('',#468,#469,#96,.T.);
#568=EDGE_CURVE('',#469,#466,#306,.T.);
#569=EDGE_CURVE('',#467,#470,#97,.T.);
#570=EDGE_CURVE('',#471,#470,#307,.T.);
#571=EDGE_CURVE('',#468,#471,#98,.T.);
#572=EDGE_CURVE('',#470,#472,#99,.T.);
#573=EDGE_CURVE('',#472,#473,#308,.T.);
#574=EDGE_CURVE('',#473,#471,#100,.T.);
#575=EDGE_CURVE('',#474,#472,#309,.T.);
#576=EDGE_CURVE('',#475,#474,#310,.T.);
#577=EDGE_CURVE('',#473,#475,#311,.T.);
#578=EDGE_CURVE('',#464,#476,#101,.T.);
#579=EDGE_CURVE('',#476,#477,#312,.T.);
#580=EDGE_CURVE('',#477,#465,#102,.T.);
#581=EDGE_CURVE('',#476,#478,#313,.T.);
#582=EDGE_CURVE('',#479,#478,#314,.T.);
#583=EDGE_CURVE('',#477,#479,#315,.T.);
#584=EDGE_CURVE('',#474,#480,#103,.T.);
#585=EDGE_CURVE('',#480,#481,#316,.T.);
#586=EDGE_CURVE('',#481,#475,#104,.T.);
#587=EDGE_CURVE('',#482,#480,#317,.T.);
#588=EDGE_CURVE('',#482,#483,#318,.T.);
#589=EDGE_CURVE('',#481,#483,#319,.T.);
#590=EDGE_CURVE('',#484,#485,#105,.T.);
#591=EDGE_CURVE('',#485,#486,#320,.T.);
#592=EDGE_CURVE('',#486,#487,#106,.T.);
#593=EDGE_CURVE('',#487,#484,#321,.T.);
#594=EDGE_CURVE('',#486,#469,#322,.T.);
#595=EDGE_CURVE('',#485,#466,#323,.T.);
#596=EDGE_CURVE('',#478,#488,#107,.T.);
#597=EDGE_CURVE('',#488,#489,#324,.T.);
#598=EDGE_CURVE('',#489,#479,#108,.T.);
#599=EDGE_CURVE('',#490,#488,#325,.T.);
#600=EDGE_CURVE('',#490,#491,#326,.T.);
#601=EDGE_CURVE('',#489,#491,#327,.T.);
#602=EDGE_CURVE('',#456,#492,#328,.T.);
#603=EDGE_CURVE('',#492,#492,#109,.T.);
#604=EDGE_CURVE('',#458,#493,#329,.T.);
#605=EDGE_CURVE('',#493,#493,#110,.T.);
#606=EDGE_CURVE('',#457,#494,#330,.T.);
#607=EDGE_CURVE('',#494,#494,#111,.T.);
#608=EDGE_CURVE('',#459,#495,#331,.T.);
#609=EDGE_CURVE('',#495,#495,#112,.T.);
#610=EDGE_CURVE('',#484,#496,#332,.T.);
#611=EDGE_CURVE('',#497,#496,#333,.T.);
#612=EDGE_CURVE('',#498,#497,#113,.T.);
#613=EDGE_CURVE('',#490,#498,#334,.T.);
#614=EDGE_CURVE('',#460,#499,#335,.T.);
#615=EDGE_CURVE('',#499,#500,#336,.T.);
#616=EDGE_CURVE('',#501,#500,#337,.T.);
#617=EDGE_CURVE('',#502,#501,#114,.T.);
#618=EDGE_CURVE('',#482,#502,#338,.T.);
#619=EDGE_CURVE('',#503,#503,#115,.T.);
#620=EDGE_CURVE('',#504,#504,#116,.T.);
#621=EDGE_CURVE('',#505,#505,#117,.T.);
#622=EDGE_CURVE('',#506,#506,#118,.T.);
#623=EDGE_CURVE('',#507,#507,#119,.T.);
#624=EDGE_CURVE('',#508,#508,#120,.T.);
#625=EDGE_CURVE('',#509,#509,#121,.T.);
#626=EDGE_CURVE('',#510,#510,#122,.T.);
#627=EDGE_CURVE('',#511,#511,#123,.T.);
#628=EDGE_CURVE('',#512,#512,#124,.T.);
#629=EDGE_CURVE('',#513,#513,#125,.T.);
#630=EDGE_CURVE('',#514,#514,#126,.T.);
#631=EDGE_CURVE('',#515,#515,#127,.T.);
#632=EDGE_CURVE('',#516,#516,#128,.T.);
#633=EDGE_CURVE('',#517,#517,#129,.T.);
#634=EDGE_CURVE('',#518,#518,#130,.T.);
#635=EDGE_CURVE('',#519,#519,#131,.T.);
#636=EDGE_CURVE('',#519,#518,#339,.T.);
#637=EDGE_CURVE('',#520,#520,#132,.T.);
#638=EDGE_CURVE('',#520,#517,#340,.T.);
#639=EDGE_CURVE('',#521,#521,#133,.T.);
#640=EDGE_CURVE('',#521,#516,#341,.T.);
#641=EDGE_CURVE('',#522,#522,#134,.T.);
#642=EDGE_CURVE('',#522,#515,#342,.T.);
#643=EDGE_CURVE('',#523,#523,#135,.T.);
#644=EDGE_CURVE('',#523,#514,#343,.T.);
#645=EDGE_CURVE('',#524,#524,#136,.T.);
#646=EDGE_CURVE('',#524,#513,#344,.T.);
#647=EDGE_CURVE('',#525,#525,#137,.T.);
#648=EDGE_CURVE('',#525,#512,#345,.T.);
#649=EDGE_CURVE('',#526,#526,#138,.T.);
#650=EDGE_CURVE('',#526,#511,#346,.T.);
#651=EDGE_CURVE('',#527,#527,#139,.T.);
#652=EDGE_CURVE('',#527,#510,#347,.T.);
#653=EDGE_CURVE('',#528,#528,#140,.T.);
#654=EDGE_CURVE('',#528,#509,#348,.T.);
#655=EDGE_CURVE('',#529,#529,#141,.T.);
#656=EDGE_CURVE('',#529,#508,#349,.T.);
#657=EDGE_CURVE('',#530,#530,#142,.T.);
#658=EDGE_CURVE('',#530,#507,#350,.T.);
#659=EDGE_CURVE('',#531,#531,#143,.T.);
#660=EDGE_CURVE('',#531,#506,#351,.T.);
#661=EDGE_CURVE('',#532,#532,#144,.T.);
#662=EDGE_CURVE('',#532,#505,#352,.T.);
#663=EDGE_CURVE('',#533,#533,#145,.T.);
#664=EDGE_CURVE('',#533,#504,#353,.T.);
#665=EDGE_CURVE('',#534,#534,#146,.T.);
#666=EDGE_CURVE('',#534,#503,#354,.T.);
#667=EDGE_CURVE('',#502,#535,#355,.T.);
#668=EDGE_CURVE('',#483,#535,#356,.T.);
#669=EDGE_CURVE('',#536,#487,#357,.T.);
#670=EDGE_CURVE('',#496,#536,#358,.T.);
#671=EDGE_CURVE('',#537,#536,#359,.T.);
#672=EDGE_CURVE('',#497,#537,#360,.T.);
#673=EDGE_CURVE('',#538,#537,#147,.T.);
#674=EDGE_CURVE('',#498,#538,#361,.T.);
#675=EDGE_CURVE('',#491,#538,#362,.T.);
#676=EDGE_CURVE('',#539,#463,#363,.T.);
#677=EDGE_CURVE('',#499,#539,#364,.T.);
#678=EDGE_CURVE('',#540,#539,#365,.T.);
#679=EDGE_CURVE('',#500,#540,#366,.T.);
#680=EDGE_CURVE('',#541,#540,#367,.T.);
#681=EDGE_CURVE('',#501,#541,#368,.T.);
#682=EDGE_CURVE('',#535,#541,#148,.T.);
#683=ORIENTED_EDGE('',*,*,#542,.F.);
#684=ORIENTED_EDGE('',*,*,#543,.T.);
#685=ORIENTED_EDGE('',*,*,#544,.T.);
#686=ORIENTED_EDGE('',*,*,#545,.F.);
#687=ORIENTED_EDGE('',*,*,#546,.F.);
#688=ORIENTED_EDGE('',*,*,#547,.T.);
#689=ORIENTED_EDGE('',*,*,#548,.T.);
#690=ORIENTED_EDGE('',*,*,#543,.F.);
#691=ORIENTED_EDGE('',*,*,#549,.F.);
#692=ORIENTED_EDGE('',*,*,#550,.T.);
#693=ORIENTED_EDGE('',*,*,#551,.T.);
#694=ORIENTED_EDGE('',*,*,#547,.F.);
#695=ORIENTED_EDGE('',*,*,#552,.F.);
#696=ORIENTED_EDGE('',*,*,#545,.T.);
#697=ORIENTED_EDGE('',*,*,#553,.T.);
#698=ORIENTED_EDGE('',*,*,#550,.F.);
#699=ORIENTED_EDGE('',*,*,#553,.F.);
#700=ORIENTED_EDGE('',*,*,#544,.F.);
#701=ORIENTED_EDGE('',*,*,#548,.F.);
#702=ORIENTED_EDGE('',*,*,#551,.F.);
#703=ORIENTED_EDGE('',*,*,#554,.F.);
#704=ORIENTED_EDGE('',*,*,#555,.F.);
#705=ORIENTED_EDGE('',*,*,#556,.F.);
#706=ORIENTED_EDGE('',*,*,#557,.F.);
#707=ORIENTED_EDGE('',*,*,#558,.T.);
#708=ORIENTED_EDGE('',*,*,#559,.T.);
#709=ORIENTED_EDGE('',*,*,#560,.T.);
#710=ORIENTED_EDGE('',*,*,#561,.T.);
#711=ORIENTED_EDGE('',*,*,#559,.F.);
#712=ORIENTED_EDGE('',*,*,#562,.T.);
#713=ORIENTED_EDGE('',*,*,#563,.F.);
#714=ORIENTED_EDGE('',*,*,#564,.F.);
#715=ORIENTED_EDGE('',*,*,#565,.T.);
#716=ORIENTED_EDGE('',*,*,#566,.T.);
#717=ORIENTED_EDGE('',*,*,#567,.T.);
#718=ORIENTED_EDGE('',*,*,#568,.T.);
#719=ORIENTED_EDGE('',*,*,#566,.F.);
#720=ORIENTED_EDGE('',*,*,#569,.T.);
#721=ORIENTED_EDGE('',*,*,#570,.F.);
#722=ORIENTED_EDGE('',*,*,#571,.F.);
#723=ORIENTED_EDGE('',*,*,#572,.T.);
#724=ORIENTED_EDGE('',*,*,#573,.T.);
#725=ORIENTED_EDGE('',*,*,#574,.T.);
#726=ORIENTED_EDGE('',*,*,#570,.T.);
#727=ORIENTED_EDGE('',*,*,#573,.F.);
#728=ORIENTED_EDGE('',*,*,#575,.F.);
#729=ORIENTED_EDGE('',*,*,#576,.F.);
#730=ORIENTED_EDGE('',*,*,#577,.F.);
#731=ORIENTED_EDGE('',*,*,#578,.T.);
#732=ORIENTED_EDGE('',*,*,#579,.T.);
#733=ORIENTED_EDGE('',*,*,#580,.T.);
#734=ORIENTED_EDGE('',*,*,#563,.T.);
#735=ORIENTED_EDGE('',*,*,#579,.F.);
#736=ORIENTED_EDGE('',*,*,#581,.T.);
#737=ORIENTED_EDGE('',*,*,#582,.F.);
#738=ORIENTED_EDGE('',*,*,#583,.F.);
#739=ORIENTED_EDGE('',*,*,#584,.T.);
#740=ORIENTED_EDGE('',*,*,#585,.T.);
#741=ORIENTED_EDGE('',*,*,#586,.T.);
#742=ORIENTED_EDGE('',*,*,#576,.T.);
#743=ORIENTED_EDGE('',*,*,#585,.F.);
#744=ORIENTED_EDGE('',*,*,#587,.F.);
#745=ORIENTED_EDGE('',*,*,#588,.T.);
#746=ORIENTED_EDGE('',*,*,#589,.F.);
#747=ORIENTED_EDGE('',*,*,#590,.T.);
#748=ORIENTED_EDGE('',*,*,#591,.T.);
#749=ORIENTED_EDGE('',*,*,#592,.T.);
#750=ORIENTED_EDGE('',*,*,#593,.T.);
#751=ORIENTED_EDGE('',*,*,#568,.F.);
#752=ORIENTED_EDGE('',*,*,#594,.F.);
#753=ORIENTED_EDGE('',*,*,#591,.F.);
#754=ORIENTED_EDGE('',*,*,#595,.T.);
#755=ORIENTED_EDGE('',*,*,#596,.T.);
#756=ORIENTED_EDGE('',*,*,#597,.T.);
#757=ORIENTED_EDGE('',*,*,#598,.T.);
#758=ORIENTED_EDGE('',*,*,#582,.T.);
#759=ORIENTED_EDGE('',*,*,#597,.F.);
#760=ORIENTED_EDGE('',*,*,#599,.F.);
#761=ORIENTED_EDGE('',*,*,#600,.T.);
#762=ORIENTED_EDGE('',*,*,#601,.F.);
#763=ORIENTED_EDGE('',*,*,#554,.T.);
#764=ORIENTED_EDGE('',*,*,#602,.T.);
#765=ORIENTED_EDGE('',*,*,#603,.F.);
#766=ORIENTED_EDGE('',*,*,#602,.F.);
#767=ORIENTED_EDGE('',*,*,#556,.T.);
#768=ORIENTED_EDGE('',*,*,#604,.T.);
#769=ORIENTED_EDGE('',*,*,#605,.F.);
#770=ORIENTED_EDGE('',*,*,#604,.F.);
#771=ORIENTED_EDGE('',*,*,#555,.T.);
#772=ORIENTED_EDGE('',*,*,#606,.T.);
#773=ORIENTED_EDGE('',*,*,#607,.F.);
#774=ORIENTED_EDGE('',*,*,#606,.F.);
#775=ORIENTED_EDGE('',*,*,#557,.T.);
#776=ORIENTED_EDGE('',*,*,#608,.T.);
#777=ORIENTED_EDGE('',*,*,#609,.F.);
#778=ORIENTED_EDGE('',*,*,#608,.F.);
#779=ORIENTED_EDGE('',*,*,#587,.T.);
#780=ORIENTED_EDGE('',*,*,#584,.F.);
#781=ORIENTED_EDGE('',*,*,#575,.T.);
#782=ORIENTED_EDGE('',*,*,#572,.F.);
#783=ORIENTED_EDGE('',*,*,#569,.F.);
#784=ORIENTED_EDGE('',*,*,#565,.F.);
#785=ORIENTED_EDGE('',*,*,#595,.F.);
#786=ORIENTED_EDGE('',*,*,#590,.F.);
#787=ORIENTED_EDGE('',*,*,#610,.T.);
#788=ORIENTED_EDGE('',*,*,#611,.F.);
#789=ORIENTED_EDGE('',*,*,#612,.F.);
#790=ORIENTED_EDGE('',*,*,#613,.F.);
#791=ORIENTED_EDGE('',*,*,#599,.T.);
#792=ORIENTED_EDGE('',*,*,#596,.F.);
#793=ORIENTED_EDGE('',*,*,#581,.F.);
#794=ORIENTED_EDGE('',*,*,#578,.F.);
#795=ORIENTED_EDGE('',*,*,#562,.F.);
#796=ORIENTED_EDGE('',*,*,#558,.F.);
#797=ORIENTED_EDGE('',*,*,#614,.T.);
#798=ORIENTED_EDGE('',*,*,#615,.T.);
#799=ORIENTED_EDGE('',*,*,#616,.F.);
#800=ORIENTED_EDGE('',*,*,#617,.F.);
#801=ORIENTED_EDGE('',*,*,#618,.F.);
#802=ORIENTED_EDGE('',*,*,#619,.T.);
#803=ORIENTED_EDGE('',*,*,#620,.T.);
#804=ORIENTED_EDGE('',*,*,#621,.T.);
#805=ORIENTED_EDGE('',*,*,#622,.T.);
#806=ORIENTED_EDGE('',*,*,#623,.T.);
#807=ORIENTED_EDGE('',*,*,#624,.T.);
#808=ORIENTED_EDGE('',*,*,#625,.T.);
#809=ORIENTED_EDGE('',*,*,#626,.T.);
#810=ORIENTED_EDGE('',*,*,#627,.T.);
#811=ORIENTED_EDGE('',*,*,#628,.T.);
#812=ORIENTED_EDGE('',*,*,#629,.T.);
#813=ORIENTED_EDGE('',*,*,#630,.T.);
#814=ORIENTED_EDGE('',*,*,#631,.T.);
#815=ORIENTED_EDGE('',*,*,#632,.T.);
#816=ORIENTED_EDGE('',*,*,#633,.T.);
#817=ORIENTED_EDGE('',*,*,#634,.T.);
#818=ORIENTED_EDGE('',*,*,#609,.T.);
#819=ORIENTED_EDGE('',*,*,#607,.T.);
#820=ORIENTED_EDGE('',*,*,#605,.T.);
#821=ORIENTED_EDGE('',*,*,#603,.T.);
#822=ORIENTED_EDGE('',*,*,#635,.F.);
#823=ORIENTED_EDGE('',*,*,#636,.T.);
#824=ORIENTED_EDGE('',*,*,#634,.F.);
#825=ORIENTED_EDGE('',*,*,#636,.F.);
#826=ORIENTED_EDGE('',*,*,#637,.F.);
#827=ORIENTED_EDGE('',*,*,#638,.T.);
#828=ORIENTED_EDGE('',*,*,#633,.F.);
#829=ORIENTED_EDGE('',*,*,#638,.F.);
#830=ORIENTED_EDGE('',*,*,#639,.F.);
#831=ORIENTED_EDGE('',*,*,#640,.T.);
#832=ORIENTED_EDGE('',*,*,#632,.F.);
#833=ORIENTED_EDGE('',*,*,#640,.F.);
#834=ORIENTED_EDGE('',*,*,#641,.F.);
#835=ORIENTED_EDGE('',*,*,#642,.T.);
#836=ORIENTED_EDGE('',*,*,#631,.F.);
#837=ORIENTED_EDGE('',*,*,#642,.F.);
#838=ORIENTED_EDGE('',*,*,#643,.F.);
#839=ORIENTED_EDGE('',*,*,#644,.T.);
#840=ORIENTED_EDGE('',*,*,#630,.F.);
#841=ORIENTED_EDGE('',*,*,#644,.F.);
#842=ORIENTED_EDGE('',*,*,#645,.F.);
#843=ORIENTED_EDGE('',*,*,#646,.T.);
#844=ORIENTED_EDGE('',*,*,#629,.F.);
#845=ORIENTED_EDGE('',*,*,#646,.F.);
#846=ORIENTED_EDGE('',*,*,#647,.F.);
#847=ORIENTED_EDGE('',*,*,#648,.T.);
#848=ORIENTED_EDGE('',*,*,#628,.F.);
#849=ORIENTED_EDGE('',*,*,#648,.F.);
#850=ORIENTED_EDGE('',*,*,#649,.F.);
#851=ORIENTED_EDGE('',*,*,#650,.T.);
#852=ORIENTED_EDGE('',*,*,#627,.F.);
#853=ORIENTED_EDGE('',*,*,#650,.F.);
#854=ORIENTED_EDGE('',*,*,#651,.F.);
#855=ORIENTED_EDGE('',*,*,#652,.T.);
#856=ORIENTED_EDGE('',*,*,#626,.F.);
#857=ORIENTED_EDGE('',*,*,#652,.F.);
#858=ORIENTED_EDGE('',*,*,#653,.F.);
#859=ORIENTED_EDGE('',*,*,#654,.T.);
#860=ORIENTED_EDGE('',*,*,#625,.F.);
#861=ORIENTED_EDGE('',*,*,#654,.F.);
#862=ORIENTED_EDGE('',*,*,#655,.F.);
#863=ORIENTED_EDGE('',*,*,#656,.T.);
#864=ORIENTED_EDGE('',*,*,#624,.F.);
#865=ORIENTED_EDGE('',*,*,#656,.F.);
#866=ORIENTED_EDGE('',*,*,#657,.F.);
#867=ORIENTED_EDGE('',*,*,#658,.T.);
#868=ORIENTED_EDGE('',*,*,#623,.F.);
#869=ORIENTED_EDGE('',*,*,#658,.F.);
#870=ORIENTED_EDGE('',*,*,#659,.F.);
#871=ORIENTED_EDGE('',*,*,#660,.T.);
#872=ORIENTED_EDGE('',*,*,#622,.F.);
#873=ORIENTED_EDGE('',*,*,#660,.F.);
#874=ORIENTED_EDGE('',*,*,#661,.F.);
#875=ORIENTED_EDGE('',*,*,#662,.T.);
#876=ORIENTED_EDGE('',*,*,#621,.F.);
#877=ORIENTED_EDGE('',*,*,#662,.F.);
#878=ORIENTED_EDGE('',*,*,#663,.F.);
#879=ORIENTED_EDGE('',*,*,#664,.T.);
#880=ORIENTED_EDGE('',*,*,#620,.F.);
#881=ORIENTED_EDGE('',*,*,#664,.F.);
#882=ORIENTED_EDGE('',*,*,#665,.F.);
#883=ORIENTED_EDGE('',*,*,#666,.T.);
#884=ORIENTED_EDGE('',*,*,#619,.F.);
#885=ORIENTED_EDGE('',*,*,#666,.F.);
#886=ORIENTED_EDGE('',*,*,#618,.T.);
#887=ORIENTED_EDGE('',*,*,#667,.T.);
#888=ORIENTED_EDGE('',*,*,#668,.F.);
#889=ORIENTED_EDGE('',*,*,#588,.F.);
#890=ORIENTED_EDGE('',*,*,#593,.F.);
#891=ORIENTED_EDGE('',*,*,#669,.F.);
#892=ORIENTED_EDGE('',*,*,#670,.F.);
#893=ORIENTED_EDGE('',*,*,#610,.F.);
#894=ORIENTED_EDGE('',*,*,#611,.T.);
#895=ORIENTED_EDGE('',*,*,#670,.T.);
#896=ORIENTED_EDGE('',*,*,#671,.F.);
#897=ORIENTED_EDGE('',*,*,#672,.F.);
#898=ORIENTED_EDGE('',*,*,#612,.T.);
#899=ORIENTED_EDGE('',*,*,#672,.T.);
#900=ORIENTED_EDGE('',*,*,#673,.F.);
#901=ORIENTED_EDGE('',*,*,#674,.F.);
#902=ORIENTED_EDGE('',*,*,#613,.T.);
#903=ORIENTED_EDGE('',*,*,#674,.T.);
#904=ORIENTED_EDGE('',*,*,#675,.F.);
#905=ORIENTED_EDGE('',*,*,#600,.F.);
#906=ORIENTED_EDGE('',*,*,#561,.F.);
#907=ORIENTED_EDGE('',*,*,#676,.F.);
#908=ORIENTED_EDGE('',*,*,#677,.F.);
#909=ORIENTED_EDGE('',*,*,#614,.F.);
#910=ORIENTED_EDGE('',*,*,#615,.F.);
#911=ORIENTED_EDGE('',*,*,#677,.T.);
#912=ORIENTED_EDGE('',*,*,#678,.F.);
#913=ORIENTED_EDGE('',*,*,#679,.F.);
#914=ORIENTED_EDGE('',*,*,#616,.T.);
#915=ORIENTED_EDGE('',*,*,#679,.T.);
#916=ORIENTED_EDGE('',*,*,#680,.F.);
#917=ORIENTED_EDGE('',*,*,#681,.F.);
#918=ORIENTED_EDGE('',*,*,#617,.T.);
#919=ORIENTED_EDGE('',*,*,#681,.T.);
#920=ORIENTED_EDGE('',*,*,#682,.F.);
#921=ORIENTED_EDGE('',*,*,#667,.F.);
#922=ORIENTED_EDGE('',*,*,#668,.T.);
#923=ORIENTED_EDGE('',*,*,#682,.T.);
#924=ORIENTED_EDGE('',*,*,#680,.T.);
#925=ORIENTED_EDGE('',*,*,#678,.T.);
#926=ORIENTED_EDGE('',*,*,#676,.T.);
#927=ORIENTED_EDGE('',*,*,#560,.F.);
#928=ORIENTED_EDGE('',*,*,#564,.T.);
#929=ORIENTED_EDGE('',*,*,#580,.F.);
#930=ORIENTED_EDGE('',*,*,#583,.T.);
#931=ORIENTED_EDGE('',*,*,#598,.F.);
#932=ORIENTED_EDGE('',*,*,#601,.T.);
#933=ORIENTED_EDGE('',*,*,#675,.T.);
#934=ORIENTED_EDGE('',*,*,#673,.T.);
#935=ORIENTED_EDGE('',*,*,#671,.T.);
#936=ORIENTED_EDGE('',*,*,#669,.T.);
#937=ORIENTED_EDGE('',*,*,#592,.F.);
#938=ORIENTED_EDGE('',*,*,#594,.T.);
#939=ORIENTED_EDGE('',*,*,#567,.F.);
#940=ORIENTED_EDGE('',*,*,#571,.T.);
#941=ORIENTED_EDGE('',*,*,#574,.F.);
#942=ORIENTED_EDGE('',*,*,#577,.T.);
#943=ORIENTED_EDGE('',*,*,#586,.F.);
#944=ORIENTED_EDGE('',*,*,#589,.T.);
#945=ORIENTED_EDGE('',*,*,#635,.T.);
#946=ORIENTED_EDGE('',*,*,#637,.T.);
#947=ORIENTED_EDGE('',*,*,#639,.T.);
#948=ORIENTED_EDGE('',*,*,#641,.T.);
#949=ORIENTED_EDGE('',*,*,#643,.T.);
#950=ORIENTED_EDGE('',*,*,#645,.T.);
#951=ORIENTED_EDGE('',*,*,#647,.T.);
#952=ORIENTED_EDGE('',*,*,#649,.T.);
#953=ORIENTED_EDGE('',*,*,#651,.T.);
#954=ORIENTED_EDGE('',*,*,#653,.T.);
#955=ORIENTED_EDGE('',*,*,#655,.T.);
#956=ORIENTED_EDGE('',*,*,#657,.T.);
#957=ORIENTED_EDGE('',*,*,#659,.T.);
#958=ORIENTED_EDGE('',*,*,#661,.T.);
#959=ORIENTED_EDGE('',*,*,#663,.T.);
#960=ORIENTED_EDGE('',*,*,#665,.T.);
#961=ORIENTED_EDGE('',*,*,#542,.T.);
#962=ORIENTED_EDGE('',*,*,#552,.T.);
#963=ORIENTED_EDGE('',*,*,#549,.T.);
#964=ORIENTED_EDGE('',*,*,#546,.T.);
#965=PLANE('',#1048);
#966=PLANE('',#1049);
#967=PLANE('',#1050);
#968=PLANE('',#1051);
#969=PLANE('',#1052);
#970=PLANE('',#1072);
#971=PLANE('',#1076);
#972=PLANE('',#1080);
#973=PLANE('',#1084);
#974=PLANE('',#1088);
#975=PLANE('',#1097);
#976=PLANE('',#1148);
#977=PLANE('',#1149);
#978=PLANE('',#1150);
#979=PLANE('',#1153);
#980=PLANE('',#1154);
#981=PLANE('',#1155);
#982=PLANE('',#1156);
#983=PLANE('',#1159);
#984=ADVANCED_FACE('',(#149),#965,.F.);
#985=ADVANCED_FACE('',(#150),#966,.F.);
#986=ADVANCED_FACE('',(#151),#967,.F.);
#987=ADVANCED_FACE('',(#152),#968,.F.);
#988=ADVANCED_FACE('',(#153,#46,#47,#48,#49),#969,.T.);
#989=ADVANCED_FACE('',(#154),#15,.F.);
#990=ADVANCED_FACE('',(#155),#16,.T.);
#991=ADVANCED_FACE('',(#156),#17,.F.);
#992=ADVANCED_FACE('',(#157),#18,.T.);
#993=ADVANCED_FACE('',(#158),#19,.F.);
#994=ADVANCED_FACE('',(#159),#970,.T.);
#995=ADVANCED_FACE('',(#160),#20,.F.);
#996=ADVANCED_FACE('',(#161),#971,.T.);
#997=ADVANCED_FACE('',(#162),#21,.F.);
#998=ADVANCED_FACE('',(#163),#972,.T.);
#999=ADVANCED_FACE('',(#164),#22,.F.);
#1000=ADVANCED_FACE('',(#165),#973,.T.);
#1001=ADVANCED_FACE('',(#166),#23,.F.);
#1002=ADVANCED_FACE('',(#167),#974,.T.);
#1003=ADVANCED_FACE('',(#168),#24,.F.);
#1004=ADVANCED_FACE('',(#169),#25,.F.);
#1005=ADVANCED_FACE('',(#170),#26,.F.);
#1006=ADVANCED_FACE('',(#171),#27,.F.);
#1007=ADVANCED_FACE('',(#172,#50,#51,#52,#53,#54,#55,#56,#57,#58,#59,#60,
#61,#62,#63,#64,#65,#66,#67,#68,#69),#975,.F.);
#1008=ADVANCED_FACE('',(#173),#28,.F.);
#1009=ADVANCED_FACE('',(#174),#29,.F.);
#1010=ADVANCED_FACE('',(#175),#30,.F.);
#1011=ADVANCED_FACE('',(#176),#31,.F.);
#1012=ADVANCED_FACE('',(#177),#32,.F.);
#1013=ADVANCED_FACE('',(#178),#33,.F.);
#1014=ADVANCED_FACE('',(#179),#34,.F.);
#1015=ADVANCED_FACE('',(#180),#35,.F.);
#1016=ADVANCED_FACE('',(#181),#36,.F.);
#1017=ADVANCED_FACE('',(#182),#37,.F.);
#1018=ADVANCED_FACE('',(#183),#38,.F.);
#1019=ADVANCED_FACE('',(#184),#39,.F.);
#1020=ADVANCED_FACE('',(#185),#40,.F.);
#1021=ADVANCED_FACE('',(#186),#41,.F.);
#1022=ADVANCED_FACE('',(#187),#42,.F.);
#1023=ADVANCED_FACE('',(#188),#43,.F.);
#1024=ADVANCED_FACE('',(#189),#976,.T.);
#1025=ADVANCED_FACE('',(#190),#977,.T.);
#1026=ADVANCED_FACE('',(#191),#978,.T.);
#1027=ADVANCED_FACE('',(#192),#44,.T.);
#1028=ADVANCED_FACE('',(#193),#979,.T.);
#1029=ADVANCED_FACE('',(#194),#980,.T.);
#1030=ADVANCED_FACE('',(#195),#981,.T.);
#1031=ADVANCED_FACE('',(#196),#982,.T.);
#1032=ADVANCED_FACE('',(#197),#45,.T.);
#1033=ADVANCED_FACE('',(#198,#70,#71,#72,#73,#74,#75,#76,#77,#78,#79,#80,
#81,#82,#83,#84,#85,#86),#983,.T.);
#1034=CLOSED_SHELL('',(#984,#985,#986,#987,#988,#989,#990,#991,#992,#993,
#994,#995,#996,#997,#998,#999,#1000,#1001,#1002,#1003,#1004,#1005,#1006,
#1007,#1008,#1009,#1010,#1011,#1012,#1013,#1014,#1015,#1016,#1017,#1018,
#1019,#1020,#1021,#1022,#1023,#1024,#1025,#1026,#1027,#1028,#1029,#1030,
#1031,#1032,#1033));
#1035=DERIVED_UNIT_ELEMENT(#1037,1.);
#1036=DERIVED_UNIT_ELEMENT(#1756,-3.);
#1037=(
MASS_UNIT()
NAMED_UNIT(*)
SI_UNIT(.KILO.,.GRAM.)
);
#1038=DERIVED_UNIT((#1035,#1036));
#1039=MEASURE_REPRESENTATION_ITEM('density measure',
POSITIVE_RATIO_MEASURE(7850.),#1038);
#1040=PROPERTY_DEFINITION_REPRESENTATION(#1045,#1042);
#1041=PROPERTY_DEFINITION_REPRESENTATION(#1046,#1043);
#1042=REPRESENTATION('material name',(#1044),#1753);
#1043=REPRESENTATION('density',(#1039),#1753);
#1044=DESCRIPTIVE_REPRESENTATION_ITEM('Steel','Steel');
#1045=PROPERTY_DEFINITION('material property','material name',#1763);
#1046=PROPERTY_DEFINITION('material property','density of part',#1763);
#1047=AXIS2_PLACEMENT_3D('',#1465,#1160,#1161);
#1048=AXIS2_PLACEMENT_3D('',#1466,#1162,#1163);
#1049=AXIS2_PLACEMENT_3D('',#1475,#1168,#1169);
#1050=AXIS2_PLACEMENT_3D('',#1481,#1173,#1174);
#1051=AXIS2_PLACEMENT_3D('',#1487,#1178,#1179);
#1052=AXIS2_PLACEMENT_3D('',#1490,#1182,#1183);
#1053=AXIS2_PLACEMENT_3D('',#1492,#1184,#1185);
#1054=AXIS2_PLACEMENT_3D('',#1494,#1186,#1187);
#1055=AXIS2_PLACEMENT_3D('',#1496,#1188,#1189);
#1056=AXIS2_PLACEMENT_3D('',#1498,#1190,#1191);
#1057=AXIS2_PLACEMENT_3D('',#1499,#1192,#1193);
#1058=AXIS2_PLACEMENT_3D('',#1502,#1194,#1195);
#1059=AXIS2_PLACEMENT_3D('',#1506,#1197,#1198);
#1060=AXIS2_PLACEMENT_3D('',#1508,#1200,#1201);
#1061=AXIS2_PLACEMENT_3D('',#1510,#1202,#1203);
#1062=AXIS2_PLACEMENT_3D('',#1513,#1205,#1206);
#1063=AXIS2_PLACEMENT_3D('',#1514,#1207,#1208);
#1064=AXIS2_PLACEMENT_3D('',#1517,#1209,#1210);
#1065=AXIS2_PLACEMENT_3D('',#1521,#1212,#1213);
#1066=AXIS2_PLACEMENT_3D('',#1523,#1215,#1216);
#1067=AXIS2_PLACEMENT_3D('',#1525,#1217,#1218);
#1068=AXIS2_PLACEMENT_3D('',#1528,#1220,#1221);
#1069=AXIS2_PLACEMENT_3D('',#1529,#1222,#1223);
#1070=AXIS2_PLACEMENT_3D('',#1531,#1224,#1225);
#1071=AXIS2_PLACEMENT_3D('',#1534,#1227,#1228);
#1072=AXIS2_PLACEMENT_3D('',#1535,#1229,#1230);
#1073=AXIS2_PLACEMENT_3D('',#1541,#1234,#1235);
#1074=AXIS2_PLACEMENT_3D('',#1543,#1236,#1237);
#1075=AXIS2_PLACEMENT_3D('',#1546,#1239,#1240);
#1076=AXIS2_PLACEMENT_3D('',#1547,#1241,#1242);
#1077=AXIS2_PLACEMENT_3D('',#1553,#1246,#1247);
#1078=AXIS2_PLACEMENT_3D('',#1555,#1248,#1249);
#1079=AXIS2_PLACEMENT_3D('',#1558,#1251,#1252);
#1080=AXIS2_PLACEMENT_3D('',#1559,#1253,#1254);
#1081=AXIS2_PLACEMENT_3D('',#1565,#1258,#1259);
#1082=AXIS2_PLACEMENT_3D('',#1568,#1260,#1261);
#1083=AXIS2_PLACEMENT_3D('',#1572,#1263,#1264);
#1084=AXIS2_PLACEMENT_3D('',#1574,#1266,#1267);
#1085=AXIS2_PLACEMENT_3D('',#1577,#1270,#1271);
#1086=AXIS2_PLACEMENT_3D('',#1579,#1272,#1273);
#1087=AXIS2_PLACEMENT_3D('',#1582,#1275,#1276);
#1088=AXIS2_PLACEMENT_3D('',#1583,#1277,#1278);
#1089=AXIS2_PLACEMENT_3D('',#1589,#1282,#1283);
#1090=AXIS2_PLACEMENT_3D('',#1592,#1285,#1286);
#1091=AXIS2_PLACEMENT_3D('',#1593,#1287,#1288);
#1092=AXIS2_PLACEMENT_3D('',#1596,#1290,#1291);
#1093=AXIS2_PLACEMENT_3D('',#1597,#1292,#1293);
#1094=AXIS2_PLACEMENT_3D('',#1600,#1295,#1296);
#1095=AXIS2_PLACEMENT_3D('',#1601,#1297,#1298);
#1096=AXIS2_PLACEMENT_3D('',#1604,#1300,#1301);
#1097=AXIS2_PLACEMENT_3D('',#1605,#1302,#1303);
#1098=AXIS2_PLACEMENT_3D('',#1611,#1306,#1307);
#1099=AXIS2_PLACEMENT_3D('',#1620,#1312,#1313);
#1100=AXIS2_PLACEMENT_3D('',#1623,#1315,#1316);
#1101=AXIS2_PLACEMENT_3D('',#1625,#1317,#1318);
#1102=AXIS2_PLACEMENT_3D('',#1627,#1319,#1320);
#1103=AXIS2_PLACEMENT_3D('',#1629,#1321,#1322);
#1104=AXIS2_PLACEMENT_3D('',#1631,#1323,#1324);
#1105=AXIS2_PLACEMENT_3D('',#1633,#1325,#1326);
#1106=AXIS2_PLACEMENT_3D('',#1635,#1327,#1328);
#1107=AXIS2_PLACEMENT_3D('',#1637,#1329,#1330);
#1108=AXIS2_PLACEMENT_3D('',#1639,#1331,#1332);
#1109=AXIS2_PLACEMENT_3D('',#1641,#1333,#1334);
#1110=AXIS2_PLACEMENT_3D('',#1643,#1335,#1336);
#1111=AXIS2_PLACEMENT_3D('',#1645,#1337,#1338);
#1112=AXIS2_PLACEMENT_3D('',#1647,#1339,#1340);
#1113=AXIS2_PLACEMENT_3D('',#1649,#1341,#1342);
#1114=AXIS2_PLACEMENT_3D('',#1651,#1343,#1344);
#1115=AXIS2_PLACEMENT_3D('',#1653,#1345,#1346);
#1116=AXIS2_PLACEMENT_3D('',#1654,#1347,#1348);
#1117=AXIS2_PLACEMENT_3D('',#1656,#1349,#1350);
#1118=AXIS2_PLACEMENT_3D('',#1658,#1352,#1353);
#1119=AXIS2_PLACEMENT_3D('',#1660,#1354,#1355);
#1120=AXIS2_PLACEMENT_3D('',#1662,#1357,#1358);
#1121=AXIS2_PLACEMENT_3D('',#1664,#1359,#1360);
#1122=AXIS2_PLACEMENT_3D('',#1666,#1362,#1363);
#1123=AXIS2_PLACEMENT_3D('',#1668,#1364,#1365);
#1124=AXIS2_PLACEMENT_3D('',#1670,#1367,#1368);
#1125=AXIS2_PLACEMENT_3D('',#1672,#1369,#1370);
#1126=AXIS2_PLACEMENT_3D('',#1674,#1372,#1373);
#1127=AXIS2_PLACEMENT_3D('',#1676,#1374,#1375);
#1128=AXIS2_PLACEMENT_3D('',#1678,#1377,#1378);
#1129=AXIS2_PLACEMENT_3D('',#1680,#1379,#1380);
#1130=AXIS2_PLACEMENT_3D('',#1682,#1382,#1383);
#1131=AXIS2_PLACEMENT_3D('',#1684,#1384,#1385);
#1132=AXIS2_PLACEMENT_3D('',#1686,#1387,#1388);
#1133=AXIS2_PLACEMENT_3D('',#1688,#1389,#1390);
#1134=AXIS2_PLACEMENT_3D('',#1690,#1392,#1393);
#1135=AXIS2_PLACEMENT_3D('',#1692,#1394,#1395);
#1136=AXIS2_PLACEMENT_3D('',#1694,#1397,#1398);
#1137=AXIS2_PLACEMENT_3D('',#1696,#1399,#1400);
#1138=AXIS2_PLACEMENT_3D('',#1698,#1402,#1403);
#1139=AXIS2_PLACEMENT_3D('',#1700,#1404,#1405);
#1140=AXIS2_PLACEMENT_3D('',#1702,#1407,#1408);
#1141=AXIS2_PLACEMENT_3D('',#1704,#1409,#1410);
#1142=AXIS2_PLACEMENT_3D('',#1706,#1412,#1413);
#1143=AXIS2_PLACEMENT_3D('',#1708,#1414,#1415);
#1144=AXIS2_PLACEMENT_3D('',#1710,#1417,#1418);
#1145=AXIS2_PLACEMENT_3D('',#1712,#1419,#1420);
#1146=AXIS2_PLACEMENT_3D('',#1714,#1422,#1423);
#1147=AXIS2_PLACEMENT_3D('',#1716,#1424,#1425);
#1148=AXIS2_PLACEMENT_3D('',#1718,#1427,#1428);
#1149=AXIS2_PLACEMENT_3D('',#1722,#1431,#1432);
#1150=AXIS2_PLACEMENT_3D('',#1726,#1435,#1436);
#1151=AXIS2_PLACEMENT_3D('',#1730,#1439,#1440);
#1152=AXIS2_PLACEMENT_3D('',#1732,#1441,#1442);
#1153=AXIS2_PLACEMENT_3D('',#1734,#1444,#1445);
#1154=AXIS2_PLACEMENT_3D('',#1736,#1447,#1448);
#1155=AXIS2_PLACEMENT_3D('',#1740,#1451,#1452);
#1156=AXIS2_PLACEMENT_3D('',#1744,#1455,#1456);
#1157=AXIS2_PLACEMENT_3D('',#1748,#1459,#1460);
#1158=AXIS2_PLACEMENT_3D('',#1749,#1461,#1462);
#1159=AXIS2_PLACEMENT_3D('',#1750,#1463,#1464);
#1160=DIRECTION('axis',(0.,0.,1.));
#1161=DIRECTION('refdir',(1.,0.,0.));
#1162=DIRECTION('center_axis',(-1.,-1.20024110770287E-16,0.));
#1163=DIRECTION('ref_axis',(-1.20024110770287E-16,1.,0.));
#1164=DIRECTION('',(-1.20024110770287E-16,1.,0.));
#1165=DIRECTION('',(0.,0.,-1.));
#1166=DIRECTION('',(-1.20024110770287E-16,1.,0.));
#1167=DIRECTION('',(0.,0.,-1.));
#1168=DIRECTION('center_axis',(6.00120553851436E-17,-1.,0.));
#1169=DIRECTION('ref_axis',(-1.,-6.00120553851436E-17,0.));
#1170=DIRECTION('',(-1.,-6.00120553851436E-17,0.));
#1171=DIRECTION('',(0.,0.,-1.));
#1172=DIRECTION('',(-1.,-6.00120553851436E-17,0.));
#1173=DIRECTION('center_axis',(1.,0.,0.));
#1174=DIRECTION('ref_axis',(0.,-1.,0.));
#1175=DIRECTION('',(0.,-1.,0.));
#1176=DIRECTION('',(0.,0.,-1.));
#1177=DIRECTION('',(0.,-1.,0.));
#1178=DIRECTION('center_axis',(-6.00120553851436E-17,1.,0.));
#1179=DIRECTION('ref_axis',(1.,6.00120553851436E-17,0.));
#1180=DIRECTION('',(1.,6.00120553851436E-17,0.));
#1181=DIRECTION('',(1.,6.00120553851436E-17,0.));
#1182=DIRECTION('center_axis',(0.,0.,1.));
#1183=DIRECTION('ref_axis',(-1.,0.,0.));
#1184=DIRECTION('center_axis',(0.,0.,1.));
#1185=DIRECTION('ref_axis',(-1.,0.,0.));
#1186=DIRECTION('center_axis',(0.,0.,1.));
#1187=DIRECTION('ref_axis',(-1.,0.,0.));
#1188=DIRECTION('center_axis',(0.,0.,1.));
#1189=DIRECTION('ref_axis',(-1.,0.,0.));
#1190=DIRECTION('center_axis',(0.,0.,1.));
#1191=DIRECTION('ref_axis',(-1.,0.,0.));
#1192=DIRECTION('center_axis',(0.,0.,1.));
#1193=DIRECTION('ref_axis',(0.941113493644595,0.338090804489068,0.));
#1194=DIRECTION('center_axis',(0.,0.,-1.));
#1195=DIRECTION('ref_axis',(0.941113493644595,0.338090804489068,0.));
#1196=DIRECTION('',(0.,0.,1.));
#1197=DIRECTION('center_axis',(0.,0.,1.));
#1198=DIRECTION('ref_axis',(0.941113493644595,0.338090804489068,0.));
#1199=DIRECTION('',(0.,0.,-1.));
#1200=DIRECTION('center_axis',(0.,0.,1.));
#1201=DIRECTION('ref_axis',(0.707106781186547,-0.707106781186548,0.));
#1202=DIRECTION('center_axis',(0.,0.,1.));
#1203=DIRECTION('ref_axis',(1.,0.,0.));
#1204=DIRECTION('',(0.,0.,-1.));
#1205=DIRECTION('center_axis',(0.,0.,1.));
#1206=DIRECTION('ref_axis',(1.,0.,0.));
#1207=DIRECTION('center_axis',(0.,0.,1.));
#1208=DIRECTION('ref_axis',(-0.941113493644595,-0.338090804489067,0.));
#1209=DIRECTION('center_axis',(0.,0.,-1.));
#1210=DIRECTION('ref_axis',(-0.941113493644595,-0.338090804489067,0.));
#1211=DIRECTION('',(0.,0.,1.));
#1212=DIRECTION('center_axis',(0.,0.,1.));
#1213=DIRECTION('ref_axis',(-0.941113493644595,-0.338090804489067,0.));
#1214=DIRECTION('',(0.,0.,-1.));
#1215=DIRECTION('center_axis',(0.,0.,1.));
#1216=DIRECTION('ref_axis',(-0.707106781186546,0.707106781186549,0.));
#1217=DIRECTION('center_axis',(0.,0.,1.));
#1218=DIRECTION('ref_axis',(1.,0.,0.));
#1219=DIRECTION('',(0.,0.,-1.));
#1220=DIRECTION('center_axis',(0.,0.,1.));
#1221=DIRECTION('ref_axis',(1.,0.,0.));
#1222=DIRECTION('center_axis',(0.,0.,1.));
#1223=DIRECTION('ref_axis',(0.338090804489068,0.941113493644595,0.));
#1224=DIRECTION('center_axis',(0.,0.,-1.));
#1225=DIRECTION('ref_axis',(0.338090804489068,0.941113493644595,0.));
#1226=DIRECTION('',(0.,0.,1.));
#1227=DIRECTION('center_axis',(0.,0.,1.));
#1228=DIRECTION('ref_axis',(0.338090804489068,0.941113493644595,0.));
#1229=DIRECTION('center_axis',(-0.707106781186547,-0.707106781186548,0.));
#1230=DIRECTION('ref_axis',(0.707106781186548,-0.707106781186547,0.));
#1231=DIRECTION('',(-0.707106781186548,0.707106781186547,0.));
#1232=DIRECTION('',(0.,0.,-1.));
#1233=DIRECTION('',(0.707106781186548,-0.707106781186547,0.));
#1234=DIRECTION('center_axis',(0.,0.,1.));
#1235=DIRECTION('ref_axis',(-0.338090804489067,-0.941113493644595,0.));
#1236=DIRECTION('center_axis',(0.,0.,-1.));
#1237=DIRECTION('ref_axis',(-0.338090804489067,-0.941113493644595,0.));
#1238=DIRECTION('',(0.,0.,1.));
#1239=DIRECTION('center_axis',(0.,0.,1.));
#1240=DIRECTION('ref_axis',(-0.338090804489067,-0.941113493644595,0.));
#1241=DIRECTION('center_axis',(0.707106781186547,0.707106781186548,0.));
#1242=DIRECTION('ref_axis',(-0.707106781186548,0.707106781186547,0.));
#1243=DIRECTION('',(-0.707106781186548,0.707106781186547,0.));
#1244=DIRECTION('',(0.,0.,-1.));
#1245=DIRECTION('',(-0.707106781186548,0.707106781186547,0.));
#1246=DIRECTION('center_axis',(0.,0.,1.));
#1247=DIRECTION('ref_axis',(0.923879532511287,0.38268343236509,0.));
#1248=DIRECTION('center_axis',(0.,0.,-1.));
#1249=DIRECTION('ref_axis',(0.923879532511287,0.38268343236509,0.));
#1250=DIRECTION('',(0.,0.,1.));
#1251=DIRECTION('center_axis',(0.,0.,1.));
#1252=DIRECTION('ref_axis',(0.923879532511287,0.38268343236509,0.));
#1253=DIRECTION('center_axis',(-1.,0.,0.));
#1254=DIRECTION('ref_axis',(0.,-1.,0.));
#1255=DIRECTION('',(0.,1.,0.));
#1256=DIRECTION('',(0.,0.,1.));
#1257=DIRECTION('',(0.,-1.,0.));
#1258=DIRECTION('center_axis',(0.,0.,1.));
#1259=DIRECTION('ref_axis',(-0.38268343236509,-0.923879532511287,0.));
#1260=DIRECTION('center_axis',(0.,0.,-1.));
#1261=DIRECTION('ref_axis',(-0.38268343236509,-0.923879532511287,0.));
#1262=DIRECTION('',(0.,0.,1.));
#1263=DIRECTION('center_axis',(0.,0.,1.));
#1264=DIRECTION('ref_axis',(-0.38268343236509,-0.923879532511287,0.));
#1265=DIRECTION('',(0.,0.,-1.));
#1266=DIRECTION('center_axis',(0.707106781186547,0.707106781186548,0.));
#1267=DIRECTION('ref_axis',(-0.707106781186548,0.707106781186547,0.));
#1268=DIRECTION('',(-0.707106781186548,0.707106781186547,0.));
#1269=DIRECTION('',(-0.707106781186548,0.707106781186547,0.));
#1270=DIRECTION('center_axis',(0.,0.,1.));
#1271=DIRECTION('ref_axis',(-0.923879532511287,-0.38268343236509,0.));
#1272=DIRECTION('center_axis',(0.,0.,-1.));
#1273=DIRECTION('ref_axis',(-0.923879532511287,-0.38268343236509,0.));
#1274=DIRECTION('',(0.,0.,1.));
#1275=DIRECTION('center_axis',(0.,0.,1.));
#1276=DIRECTION('ref_axis',(-0.923879532511287,-0.38268343236509,0.));
#1277=DIRECTION('center_axis',(1.,0.,0.));
#1278=DIRECTION('ref_axis',(0.,1.,0.));
#1279=DIRECTION('',(0.,-1.,0.));
#1280=DIRECTION('',(0.,0.,1.));
#1281=DIRECTION('',(0.,1.,0.));
#1282=DIRECTION('center_axis',(0.,0.,-1.));
#1283=DIRECTION('ref_axis',(-1.,0.,0.));
#1284=DIRECTION('',(0.,0.,-1.));
#1285=DIRECTION('center_axis',(0.,0.,1.));
#1286=DIRECTION('ref_axis',(-1.,0.,0.));
#1287=DIRECTION('center_axis',(0.,0.,-1.));
#1288=DIRECTION('ref_axis',(-1.,0.,0.));
#1289=DIRECTION('',(0.,0.,-1.));
#1290=DIRECTION('center_axis',(0.,0.,1.));
#1291=DIRECTION('ref_axis',(-1.,0.,0.));
#1292=DIRECTION('center_axis',(0.,0.,-1.));
#1293=DIRECTION('ref_axis',(-1.,0.,0.));
#1294=DIRECTION('',(0.,0.,-1.));
#1295=DIRECTION('center_axis',(0.,0.,1.));
#1296=DIRECTION('ref_axis',(-1.,0.,0.));
#1297=DIRECTION('center_axis',(0.,0.,-1.));
#1298=DIRECTION('ref_axis',(-1.,0.,0.));
#1299=DIRECTION('',(0.,0.,-1.));
#1300=DIRECTION('center_axis',(0.,0.,1.));
#1301=DIRECTION('ref_axis',(-1.,0.,0.));
#1302=DIRECTION('center_axis',(0.,0.,1.));
#1303=DIRECTION('ref_axis',(1.,0.,0.));
#1304=DIRECTION('',(1.,0.,0.));
#1305=DIRECTION('',(-0.707106781186499,-0.707106781186596,0.));
#1306=DIRECTION('center_axis',(0.,0.,1.));
#1307=DIRECTION('ref_axis',(1.,0.,0.));
#1308=DIRECTION('',(0.707106781186596,0.707106781186499,0.));
#1309=DIRECTION('',(-0.707106781186548,0.707106781186547,0.));
#1310=DIRECTION('',(-1.,0.,0.));
#1311=DIRECTION('',(0.707106781186596,0.707106781186499,0.));
#1312=DIRECTION('center_axis',(0.,0.,1.));
#1313=DIRECTION('ref_axis',(1.,0.,0.));
#1314=DIRECTION('',(-0.707106781186499,-0.707106781186596,0.));
#1315=DIRECTION('center_axis',(0.,0.,1.));
#1316=DIRECTION('ref_axis',(-1.,0.,0.));
#1317=DIRECTION('center_axis',(0.,0.,1.));
#1318=DIRECTION('ref_axis',(-1.,0.,0.));
#1319=DIRECTION('center_axis',(0.,0.,1.));
#1320=DIRECTION('ref_axis',(-1.,0.,0.));
#1321=DIRECTION('center_axis',(0.,0.,1.));
#1322=DIRECTION('ref_axis',(-1.,0.,0.));
#1323=DIRECTION('center_axis',(0.,0.,1.));
#1324=DIRECTION('ref_axis',(-1.,0.,0.));
#1325=DIRECTION('center_axis',(0.,0.,1.));
#1326=DIRECTION('ref_axis',(-1.,0.,0.));
#1327=DIRECTION('center_axis',(0.,0.,1.));
#1328=DIRECTION('ref_axis',(-1.,0.,0.));
#1329=DIRECTION('center_axis',(0.,0.,1.));
#1330=DIRECTION('ref_axis',(-1.,0.,0.));
#1331=DIRECTION('center_axis',(0.,0.,1.));
#1332=DIRECTION('ref_axis',(-1.,0.,0.));
#1333=DIRECTION('center_axis',(0.,0.,1.));
#1334=DIRECTION('ref_axis',(-1.,0.,0.));
#1335=DIRECTION('center_axis',(0.,0.,1.));
#1336=DIRECTION('ref_axis',(-1.,0.,0.));
#1337=DIRECTION('center_axis',(0.,0.,1.));
#1338=DIRECTION('ref_axis',(-1.,0.,0.));
#1339=DIRECTION('center_axis',(0.,0.,1.));
#1340=DIRECTION('ref_axis',(-1.,0.,0.));
#1341=DIRECTION('center_axis',(0.,0.,1.));
#1342=DIRECTION('ref_axis',(-1.,0.,0.));
#1343=DIRECTION('center_axis',(0.,0.,1.));
#1344=DIRECTION('ref_axis',(-1.,0.,0.));
#1345=DIRECTION('center_axis',(0.,0.,1.));
#1346=DIRECTION('ref_axis',(-1.,0.,0.));
#1347=DIRECTION('center_axis',(0.,0.,-1.));
#1348=DIRECTION('ref_axis',(-1.,0.,0.));
#1349=DIRECTION('center_axis',(0.,0.,-1.));
#1350=DIRECTION('ref_axis',(-1.,0.,0.));
#1351=DIRECTION('',(0.,0.,-1.));
#1352=DIRECTION('center_axis',(0.,0.,-1.));
#1353=DIRECTION('ref_axis',(-1.,0.,0.));
#1354=DIRECTION('center_axis',(0.,0.,-1.));
#1355=DIRECTION('ref_axis',(-1.,0.,0.));
#1356=DIRECTION('',(0.,0.,-1.));
#1357=DIRECTION('center_axis',(0.,0.,-1.));
#1358=DIRECTION('ref_axis',(-1.,0.,0.));
#1359=DIRECTION('center_axis',(0.,0.,-1.));
#1360=DIRECTION('ref_axis',(-1.,0.,0.));
#1361=DIRECTION('',(0.,0.,-1.));
#1362=DIRECTION('center_axis',(0.,0.,-1.));
#1363=DIRECTION('ref_axis',(-1.,0.,0.));
#1364=DIRECTION('center_axis',(0.,0.,-1.));
#1365=DIRECTION('ref_axis',(-1.,0.,0.));
#1366=DIRECTION('',(0.,0.,-1.));
#1367=DIRECTION('center_axis',(0.,0.,-1.));
#1368=DIRECTION('ref_axis',(-1.,0.,0.));
#1369=DIRECTION('center_axis',(0.,0.,-1.));
#1370=DIRECTION('ref_axis',(-1.,0.,0.));
#1371=DIRECTION('',(0.,0.,-1.));
#1372=DIRECTION('center_axis',(0.,0.,-1.));
#1373=DIRECTION('ref_axis',(-1.,0.,0.));
#1374=DIRECTION('center_axis',(0.,0.,-1.));
#1375=DIRECTION('ref_axis',(-1.,0.,0.));
#1376=DIRECTION('',(0.,0.,-1.));
#1377=DIRECTION('center_axis',(0.,0.,-1.));
#1378=DIRECTION('ref_axis',(-1.,0.,0.));
#1379=DIRECTION('center_axis',(0.,0.,-1.));
#1380=DIRECTION('ref_axis',(-1.,0.,0.));
#1381=DIRECTION('',(0.,0.,-1.));
#1382=DIRECTION('center_axis',(0.,0.,-1.));
#1383=DIRECTION('ref_axis',(-1.,0.,0.));
#1384=DIRECTION('center_axis',(0.,0.,-1.));
#1385=DIRECTION('ref_axis',(-1.,0.,0.));
#1386=DIRECTION('',(0.,0.,-1.));
#1387=DIRECTION('center_axis',(0.,0.,-1.));
#1388=DIRECTION('ref_axis',(-1.,0.,0.));
#1389=DIRECTION('center_axis',(0.,0.,-1.));
#1390=DIRECTION('ref_axis',(-1.,0.,0.));
#1391=DIRECTION('',(0.,0.,-1.));
#1392=DIRECTION('center_axis',(0.,0.,-1.));
#1393=DIRECTION('ref_axis',(-1.,0.,0.));
#1394=DIRECTION('center_axis',(0.,0.,-1.));
#1395=DIRECTION('ref_axis',(-1.,0.,0.));
#1396=DIRECTION('',(0.,0.,-1.));
#1397=DIRECTION('center_axis',(0.,0.,-1.));
#1398=DIRECTION('ref_axis',(-1.,0.,0.));
#1399=DIRECTION('center_axis',(0.,0.,-1.));
#1400=DIRECTION('ref_axis',(-1.,0.,0.));
#1401=DIRECTION('',(0.,0.,-1.));
#1402=DIRECTION('center_axis',(0.,0.,-1.));
#1403=DIRECTION('ref_axis',(-1.,0.,0.));
#1404=DIRECTION('center_axis',(0.,0.,-1.));
#1405=DIRECTION('ref_axis',(-1.,0.,0.));
#1406=DIRECTION('',(0.,0.,-1.));
#1407=DIRECTION('center_axis',(0.,0.,-1.));
#1408=DIRECTION('ref_axis',(-1.,0.,0.));
#1409=DIRECTION('center_axis',(0.,0.,-1.));
#1410=DIRECTION('ref_axis',(-1.,0.,0.));
#1411=DIRECTION('',(0.,0.,-1.));
#1412=DIRECTION('center_axis',(0.,0.,-1.));
#1413=DIRECTION('ref_axis',(-1.,0.,0.));
#1414=DIRECTION('center_axis',(0.,0.,-1.));
#1415=DIRECTION('ref_axis',(-1.,0.,0.));
#1416=DIRECTION('',(0.,0.,-1.));
#1417=DIRECTION('center_axis',(0.,0.,-1.));
#1418=DIRECTION('ref_axis',(-1.,0.,0.));
#1419=DIRECTION('center_axis',(0.,0.,-1.));
#1420=DIRECTION('ref_axis',(-1.,0.,0.));
#1421=DIRECTION('',(0.,0.,-1.));
#1422=DIRECTION('center_axis',(0.,0.,-1.));
#1423=DIRECTION('ref_axis',(-1.,0.,0.));
#1424=DIRECTION('center_axis',(0.,0.,-1.));
#1425=DIRECTION('ref_axis',(-1.,0.,0.));
#1426=DIRECTION('',(0.,0.,-1.));
#1427=DIRECTION('center_axis',(-0.707106781186596,0.707106781186499,0.));
#1428=DIRECTION('ref_axis',(-0.707106781186499,-0.707106781186596,0.));
#1429=DIRECTION('',(0.,0.,1.));
#1430=DIRECTION('',(-0.707106781186499,-0.707106781186596,0.));
#1431=DIRECTION('center_axis',(0.,1.,0.));
#1432=DIRECTION('ref_axis',(-1.,0.,0.));
#1433=DIRECTION('',(-1.,0.,0.));
#1434=DIRECTION('',(0.,0.,1.));
#1435=DIRECTION('center_axis',(-0.707106781186596,0.707106781186499,0.));
#1436=DIRECTION('ref_axis',(-0.707106781186499,-0.707106781186596,0.));
#1437=DIRECTION('',(-0.707106781186499,-0.707106781186596,0.));
#1438=DIRECTION('',(0.,0.,1.));
#1439=DIRECTION('center_axis',(0.,0.,1.));
#1440=DIRECTION('ref_axis',(0.707106781186545,0.70710678118655,0.));
#1441=DIRECTION('center_axis',(0.,0.,1.));
#1442=DIRECTION('ref_axis',(1.,0.,0.));
#1443=DIRECTION('',(0.,0.,1.));
#1444=DIRECTION('center_axis',(0.707106781186499,-0.707106781186596,0.));
#1445=DIRECTION('ref_axis',(0.707106781186596,0.707106781186499,0.));
#1446=DIRECTION('',(0.707106781186596,0.707106781186499,0.));
#1447=DIRECTION('center_axis',(-0.707106781186547,-0.707106781186548,0.));
#1448=DIRECTION('ref_axis',(0.707106781186548,-0.707106781186547,0.));
#1449=DIRECTION('',(0.707106781186548,-0.707106781186547,0.));
#1450=DIRECTION('',(0.,0.,1.));
#1451=DIRECTION('center_axis',(0.,-1.,0.));
#1452=DIRECTION('ref_axis',(1.,0.,0.));
#1453=DIRECTION('',(1.,0.,0.));
#1454=DIRECTION('',(0.,0.,1.));
#1455=DIRECTION('center_axis',(0.707106781186499,-0.707106781186596,0.));
#1456=DIRECTION('ref_axis',(0.707106781186596,0.707106781186499,0.));
#1457=DIRECTION('',(0.707106781186596,0.707106781186499,0.));
#1458=DIRECTION('',(0.,0.,1.));
#1459=DIRECTION('center_axis',(0.,0.,1.));
#1460=DIRECTION('ref_axis',(-0.707106781186549,-0.707106781186546,0.));
#1461=DIRECTION('center_axis',(0.,0.,1.));
#1462=DIRECTION('ref_axis',(1.,0.,0.));
#1463=DIRECTION('center_axis',(0.,0.,1.));
#1464=DIRECTION('ref_axis',(1.,0.,0.));
#1465=CARTESIAN_POINT('',(0.,0.,0.));
#1466=CARTESIAN_POINT('Origin',(-18.5,-18.5,5.));
#1467=CARTESIAN_POINT('',(-18.5,-18.5,5.));
#1468=CARTESIAN_POINT('',(-18.5,18.5,5.));
#1469=CARTESIAN_POINT('',(-18.5,-9.24999999999999,5.));
#1470=CARTESIAN_POINT('',(-18.5,-18.5,4.));
#1471=CARTESIAN_POINT('',(-18.5,-18.5,5.));
#1472=CARTESIAN_POINT('',(-18.5,18.5,4.));
#1473=CARTESIAN_POINT('',(-18.5,-18.5,4.));
#1474=CARTESIAN_POINT('',(-18.5,18.5,5.));
#1475=CARTESIAN_POINT('Origin',(18.5,-18.5,5.));
#1476=CARTESIAN_POINT('',(18.5,-18.5,5.));
#1477=CARTESIAN_POINT('',(9.25,-18.5,5.));
#1478=CARTESIAN_POINT('',(18.5,-18.5,4.));
#1479=CARTESIAN_POINT('',(18.5,-18.5,5.));
#1480=CARTESIAN_POINT('',(18.5,-18.5,4.));
#1481=CARTESIAN_POINT('Origin',(18.5,18.5,5.));
#1482=CARTESIAN_POINT('',(18.5,18.5,5.));
#1483=CARTESIAN_POINT('',(18.5,9.25000000000001,5.));
#1484=CARTESIAN_POINT('',(18.5,18.5,4.));
#1485=CARTESIAN_POINT('',(18.5,18.5,5.));
#1486=CARTESIAN_POINT('',(18.5,18.5,4.));
#1487=CARTESIAN_POINT('Origin',(-18.5,18.5,5.));
#1488=CARTESIAN_POINT('',(-9.25,18.5,5.));
#1489=CARTESIAN_POINT('',(-18.5,18.5,4.));
#1490=CARTESIAN_POINT('Origin',(0.,0.,4.));
#1491=CARTESIAN_POINT('',(17.25,-15.25,4.));
#1492=CARTESIAN_POINT('Origin',(15.25,-15.25,4.));
#1493=CARTESIAN_POINT('',(17.25,15.25,4.));
#1494=CARTESIAN_POINT('Origin',(15.25,15.25,4.));
#1495=CARTESIAN_POINT('',(-13.25,15.25,4.));
#1496=CARTESIAN_POINT('Origin',(-15.25,15.25,4.));
#1497=CARTESIAN_POINT('',(-13.25,-15.25,4.));
#1498=CARTESIAN_POINT('Origin',(-15.25,-15.25,4.));
#1499=CARTESIAN_POINT('Origin',(55.6005050633883,-75.3994949366117,0.));
#1500=CARTESIAN_POINT('',(59.8431457505076,-71.1568542494924,0.));
#1501=CARTESIAN_POINT('',(61.5730945915551,-75.9723599538994,0.));
#1502=CARTESIAN_POINT('Origin',(55.6005050633883,-75.3994949366117,0.));
#1503=CARTESIAN_POINT('',(61.5730945915551,-75.9723599538994,5.));
#1504=CARTESIAN_POINT('',(61.5730945915551,-75.9723599538994,0.));
#1505=CARTESIAN_POINT('',(59.8431457505076,-71.1568542494924,5.));
#1506=CARTESIAN_POINT('Origin',(55.6005050633883,-75.3994949366117,5.));
#1507=CARTESIAN_POINT('',(59.8431457505076,-71.1568542494924,0.));
#1508=CARTESIAN_POINT('Origin',(77.5,-77.5,0.));
#1509=CARTESIAN_POINT('',(75.9723599538994,-61.5730945915551,0.));
#1510=CARTESIAN_POINT('Origin',(77.5,-77.5,0.));
#1511=CARTESIAN_POINT('',(75.9723599538994,-61.5730945915551,5.));
#1512=CARTESIAN_POINT('',(75.9723599538994,-61.5730945915551,0.));
#1513=CARTESIAN_POINT('Origin',(77.5,-77.5,5.));
#1514=CARTESIAN_POINT('Origin',(-55.6005050633884,75.3994949366116,0.));
#1515=CARTESIAN_POINT('',(-59.8431457505077,71.1568542494924,0.));
#1516=CARTESIAN_POINT('',(-61.5730945915552,75.9723599538994,0.));
#1517=CARTESIAN_POINT('Origin',(-55.6005050633884,75.3994949366116,0.));
#1518=CARTESIAN_POINT('',(-61.5730945915552,75.9723599538994,5.));
#1519=CARTESIAN_POINT('',(-61.5730945915552,75.9723599538994,0.));
#1520=CARTESIAN_POINT('',(-59.8431457505077,71.1568542494924,5.));
#1521=CARTESIAN_POINT('Origin',(-55.6005050633884,75.3994949366116,5.));
#1522=CARTESIAN_POINT('',(-59.8431457505076,71.1568542494924,0.));
#1523=CARTESIAN_POINT('Origin',(-77.5,77.5,0.));
#1524=CARTESIAN_POINT('',(-75.9723599538994,61.5730945915552,0.));
#1525=CARTESIAN_POINT('Origin',(-77.5,77.5,0.));
#1526=CARTESIAN_POINT('',(-75.9723599538994,61.5730945915552,5.));
#1527=CARTESIAN_POINT('',(-75.9723599538994,61.5730945915552,0.));
#1528=CARTESIAN_POINT('Origin',(-77.5,77.5,5.));
#1529=CARTESIAN_POINT('Origin',(-75.3994949366117,55.6005050633884,0.));
#1530=CARTESIAN_POINT('',(-71.1568542494924,59.8431457505076,0.));
#1531=CARTESIAN_POINT('Origin',(-75.3994949366117,55.6005050633884,0.));
#1532=CARTESIAN_POINT('',(-71.1568542494924,59.8431457505076,5.));
#1533=CARTESIAN_POINT('',(-71.1568542494924,59.8431457505076,0.));
#1534=CARTESIAN_POINT('Origin',(-75.3994949366117,55.6005050633884,5.));
#1535=CARTESIAN_POINT('Origin',(-73.3588952783597,62.0451867793749,0.));
#1536=CARTESIAN_POINT('',(-29.2573593128807,17.9436508138959,0.));
#1537=CARTESIAN_POINT('',(62.0451867793749,-73.3588952783597,0.));
#1538=CARTESIAN_POINT('',(-29.2573593128807,17.9436508138959,5.));
#1539=CARTESIAN_POINT('',(-29.2573593128807,17.9436508138959,0.));
#1540=CARTESIAN_POINT('',(62.0451867793749,-73.3588952783597,5.));
#1541=CARTESIAN_POINT('Origin',(75.3994949366117,-55.6005050633883,0.));
#1542=CARTESIAN_POINT('',(71.1568542494924,-59.8431457505076,0.));
#1543=CARTESIAN_POINT('Origin',(75.3994949366117,-55.6005050633883,0.));
#1544=CARTESIAN_POINT('',(71.1568542494924,-59.8431457505076,5.));
#1545=CARTESIAN_POINT('',(71.1568542494924,-59.8431457505076,0.));
#1546=CARTESIAN_POINT('Origin',(75.3994949366117,-55.6005050633883,5.));
#1547=CARTESIAN_POINT('Origin',(73.3588952783597,-62.0451867793749,0.));
#1548=CARTESIAN_POINT('',(29.2573593128807,-17.9436508138959,0.));
#1549=CARTESIAN_POINT('',(73.3588952783597,-62.0451867793749,0.));
#1550=CARTESIAN_POINT('',(29.2573593128807,-17.9436508138959,5.));
#1551=CARTESIAN_POINT('',(29.2573593128807,-17.943650813896,0.));
#1552=CARTESIAN_POINT('',(73.3588952783597,-62.0451867793749,5.));
#1553=CARTESIAN_POINT('Origin',(-33.5,13.7010101267767,0.));
#1554=CARTESIAN_POINT('',(-27.5,13.7010101267767,0.));
#1555=CARTESIAN_POINT('Origin',(-33.5,13.7010101267767,0.));
#1556=CARTESIAN_POINT('',(-27.5,13.7010101267767,5.));
#1557=CARTESIAN_POINT('',(-27.5,13.7010101267767,0.));
#1558=CARTESIAN_POINT('Origin',(-33.5,13.7010101267767,5.));
#1559=CARTESIAN_POINT('Origin',(-27.5,16.1862915010152,0.));
#1560=CARTESIAN_POINT('',(-27.5,-16.1862915010092,0.));
#1561=CARTESIAN_POINT('',(-27.5,-27.5,0.));
#1562=CARTESIAN_POINT('',(-27.5,-16.1862915010092,5.));
#1563=CARTESIAN_POINT('',(-27.5,-16.1862915010092,0.));
#1564=CARTESIAN_POINT('',(-27.5,-27.5,5.));
#1565=CARTESIAN_POINT('Origin',(-13.7010101267767,33.5,0.));
#1566=CARTESIAN_POINT('',(-13.7010101267767,27.5,0.));
#1567=CARTESIAN_POINT('',(-17.943650813896,29.2573593128807,0.));
#1568=CARTESIAN_POINT('Origin',(-13.7010101267767,33.5,0.));
#1569=CARTESIAN_POINT('',(-17.943650813896,29.2573593128807,5.));
#1570=CARTESIAN_POINT('',(-17.943650813896,29.2573593128807,0.));
#1571=CARTESIAN_POINT('',(-13.7010101267767,27.5,5.));
#1572=CARTESIAN_POINT('Origin',(-13.7010101267767,33.5,5.));
#1573=CARTESIAN_POINT('',(-13.7010101267767,27.5,0.));
#1574=CARTESIAN_POINT('Origin',(-16.1862915010153,27.5,0.));
#1575=CARTESIAN_POINT('',(73.3588952783597,-62.0451867793749,5.));
#1576=CARTESIAN_POINT('',(73.3588952783597,-62.0451867793749,0.));
#1577=CARTESIAN_POINT('Origin',(33.5,-13.7010101267767,0.));
#1578=CARTESIAN_POINT('',(27.5,-13.7010101267767,0.));
#1579=CARTESIAN_POINT('Origin',(33.5,-13.7010101267767,0.));
#1580=CARTESIAN_POINT('',(27.5,-13.7010101267767,5.));
#1581=CARTESIAN_POINT('',(27.5,-13.7010101267767,0.));
#1582=CARTESIAN_POINT('Origin',(33.5,-13.7010101267767,5.));
#1583=CARTESIAN_POINT('Origin',(27.5,-16.1862915010152,0.));
#1584=CARTESIAN_POINT('',(27.5,16.1862915010031,0.));
#1585=CARTESIAN_POINT('',(27.5,27.5,0.));
#1586=CARTESIAN_POINT('',(27.5,16.1862915010031,5.));
#1587=CARTESIAN_POINT('',(27.5,16.1862915010031,0.));
#1588=CARTESIAN_POINT('',(27.5,27.5,5.));
#1589=CARTESIAN_POINT('Origin',(15.25,-15.25,5.));
#1590=CARTESIAN_POINT('',(17.25,-15.25,0.));
#1591=CARTESIAN_POINT('',(17.25,-15.25,5.));
#1592=CARTESIAN_POINT('Origin',(15.25,-15.25,0.));
#1593=CARTESIAN_POINT('Origin',(-15.25,15.25,5.));
#1594=CARTESIAN_POINT('',(-13.25,15.25,0.));
#1595=CARTESIAN_POINT('',(-13.25,15.25,5.));
#1596=CARTESIAN_POINT('Origin',(-15.25,15.25,0.));
#1597=CARTESIAN_POINT('Origin',(15.25,15.25,5.));
#1598=CARTESIAN_POINT('',(17.25,15.25,0.));
#1599=CARTESIAN_POINT('',(17.25,15.25,5.));
#1600=CARTESIAN_POINT('Origin',(15.25,15.25,0.));
#1601=CARTESIAN_POINT('Origin',(-15.25,-15.25,5.));
#1602=CARTESIAN_POINT('',(-13.25,-15.25,0.));
#1603=CARTESIAN_POINT('',(-13.25,-15.25,5.));
#1604=CARTESIAN_POINT('Origin',(-15.25,-15.25,0.));
#1605=CARTESIAN_POINT('Origin',(0.,1.77635683940025E-14,0.));
#1606=CARTESIAN_POINT('',(16.1862915010032,27.5,0.));
#1607=CARTESIAN_POINT('',(-27.5,27.5,0.));
#1608=CARTESIAN_POINT('',(62.045186779371,73.3588952783741,0.));
#1609=CARTESIAN_POINT('',(62.045186779371,73.3588952783741,0.));
#1610=CARTESIAN_POINT('',(73.3588952783742,62.045186779371,0.));
#1611=CARTESIAN_POINT('Origin',(77.5,77.5,0.));
#1612=CARTESIAN_POINT('',(-62.045186779375,-73.3588952783595,0.));
#1613=CARTESIAN_POINT('',(16.1862915010152,-27.5,0.));
#1614=CARTESIAN_POINT('',(62.0451867793749,-73.3588952783597,0.));
#1615=CARTESIAN_POINT('',(-16.1862915010091,-27.5,0.));
#1616=CARTESIAN_POINT('',(27.5,-27.5,0.));
#1617=CARTESIAN_POINT('',(-62.045186779375,-73.3588952783595,0.));
#1618=CARTESIAN_POINT('',(-62.045186779375,-73.3588952783595,0.));
#1619=CARTESIAN_POINT('',(-73.3588952783595,-62.045186779375,0.));
#1620=CARTESIAN_POINT('Origin',(-77.5,-77.5,0.));
#1621=CARTESIAN_POINT('',(62.045186779371,73.3588952783741,0.));
#1622=CARTESIAN_POINT('',(70.,77.5,0.));
#1623=CARTESIAN_POINT('Origin',(68.,77.5,0.));
#1624=CARTESIAN_POINT('',(-85.,77.5,0.));
#1625=CARTESIAN_POINT('Origin',(-87.,77.5,0.));
#1626=CARTESIAN_POINT('',(-85.,-77.5,0.));
#1627=CARTESIAN_POINT('Origin',(-87.,-77.5,0.));
#1628=CARTESIAN_POINT('',(70.,-77.5,0.));
#1629=CARTESIAN_POINT('Origin',(68.,-77.5,0.));
#1630=CARTESIAN_POINT('',(79.5,-69.5,0.));
#1631=CARTESIAN_POINT('Origin',(77.5,-69.5,0.));
#1632=CARTESIAN_POINT('',(-75.5,-85.5,0.));
#1633=CARTESIAN_POINT('Origin',(-77.5,-85.5,0.));
#1634=CARTESIAN_POINT('',(-75.5,69.5,0.));
#1635=CARTESIAN_POINT('Origin',(-77.5,69.5,0.));
#1636=CARTESIAN_POINT('',(79.5,69.5,0.));
#1637=CARTESIAN_POINT('Origin',(77.5,69.5,0.));
#1638=CARTESIAN_POINT('',(79.5,85.5,0.));
#1639=CARTESIAN_POINT('Origin',(77.5,85.5,0.));
#1640=CARTESIAN_POINT('',(-75.5,85.5,0.));
#1641=CARTESIAN_POINT('Origin',(-77.5,85.5,0.));
#1642=CARTESIAN_POINT('',(-75.5,-69.5,0.));
#1643=CARTESIAN_POINT('Origin',(-77.5,-69.5,0.));
#1644=CARTESIAN_POINT('',(79.5,-85.5,0.));
#1645=CARTESIAN_POINT('Origin',(77.5,-85.5,0.));
#1646=CARTESIAN_POINT('',(89.,-77.5,0.));
#1647=CARTESIAN_POINT('Origin',(87.,-77.5,0.));
#1648=CARTESIAN_POINT('',(-66.,-77.5,0.));
#1649=CARTESIAN_POINT('Origin',(-68.,-77.5,0.));
#1650=CARTESIAN_POINT('',(-66.,77.5,0.));
#1651=CARTESIAN_POINT('Origin',(-68.,77.5,0.));
#1652=CARTESIAN_POINT('',(89.,77.5,0.));
#1653=CARTESIAN_POINT('Origin',(87.,77.5,0.));
#1654=CARTESIAN_POINT('Origin',(87.,77.5,5.));
#1655=CARTESIAN_POINT('',(89.,77.5,5.));
#1656=CARTESIAN_POINT('Origin',(87.,77.5,5.));
#1657=CARTESIAN_POINT('',(89.,77.5,5.));
#1658=CARTESIAN_POINT('Origin',(-68.,77.5,5.));
#1659=CARTESIAN_POINT('',(-66.,77.5,5.));
#1660=CARTESIAN_POINT('Origin',(-68.,77.5,5.));
#1661=CARTESIAN_POINT('',(-66.,77.5,5.));
#1662=CARTESIAN_POINT('Origin',(-68.,-77.5,5.));
#1663=CARTESIAN_POINT('',(-66.,-77.5,5.));
#1664=CARTESIAN_POINT('Origin',(-68.,-77.5,5.));
#1665=CARTESIAN_POINT('',(-66.,-77.5,5.));
#1666=CARTESIAN_POINT('Origin',(87.,-77.5,5.));
#1667=CARTESIAN_POINT('',(89.,-77.5,5.));
#1668=CARTESIAN_POINT('Origin',(87.,-77.5,5.));
#1669=CARTESIAN_POINT('',(89.,-77.5,5.));
#1670=CARTESIAN_POINT('Origin',(77.5,-85.5,5.));
#1671=CARTESIAN_POINT('',(79.5,-85.5,5.));
#1672=CARTESIAN_POINT('Origin',(77.5,-85.5,5.));
#1673=CARTESIAN_POINT('',(79.5,-85.5,5.));
#1674=CARTESIAN_POINT('Origin',(-77.5,-69.5,5.));
#1675=CARTESIAN_POINT('',(-75.5,-69.5,5.));
#1676=CARTESIAN_POINT('Origin',(-77.5,-69.5,5.));
#1677=CARTESIAN_POINT('',(-75.5,-69.5,5.));
#1678=CARTESIAN_POINT('Origin',(-77.5,85.5,5.));
#1679=CARTESIAN_POINT('',(-75.5,85.5,5.));
#1680=CARTESIAN_POINT('Origin',(-77.5,85.5,5.));
#1681=CARTESIAN_POINT('',(-75.5,85.5,5.));
#1682=CARTESIAN_POINT('Origin',(77.5,85.5,5.));
#1683=CARTESIAN_POINT('',(79.5,85.5,5.));
#1684=CARTESIAN_POINT('Origin',(77.5,85.5,5.));
#1685=CARTESIAN_POINT('',(79.5,85.5,5.));
#1686=CARTESIAN_POINT('Origin',(77.5,69.5,5.));
#1687=CARTESIAN_POINT('',(79.5,69.5,5.));
#1688=CARTESIAN_POINT('Origin',(77.5,69.5,5.));
#1689=CARTESIAN_POINT('',(79.5,69.5,5.));
#1690=CARTESIAN_POINT('Origin',(-77.5,69.5,5.));
#1691=CARTESIAN_POINT('',(-75.5,69.5,5.));
#1692=CARTESIAN_POINT('Origin',(-77.5,69.5,5.));
#1693=CARTESIAN_POINT('',(-75.5,69.5,5.));
#1694=CARTESIAN_POINT('Origin',(-77.5,-85.5,5.));
#1695=CARTESIAN_POINT('',(-75.5,-85.5,5.));
#1696=CARTESIAN_POINT('Origin',(-77.5,-85.5,5.));
#1697=CARTESIAN_POINT('',(-75.5,-85.5,5.));
#1698=CARTESIAN_POINT('Origin',(77.5,-69.5,5.));
#1699=CARTESIAN_POINT('',(79.5,-69.5,5.));
#1700=CARTESIAN_POINT('Origin',(77.5,-69.5,5.));
#1701=CARTESIAN_POINT('',(79.5,-69.5,5.));
#1702=CARTESIAN_POINT('Origin',(68.,-77.5,5.));
#1703=CARTESIAN_POINT('',(70.,-77.5,5.));
#1704=CARTESIAN_POINT('Origin',(68.,-77.5,5.));
#1705=CARTESIAN_POINT('',(70.,-77.5,5.));
#1706=CARTESIAN_POINT('Origin',(-87.,-77.5,5.));
#1707=CARTESIAN_POINT('',(-85.,-77.5,5.));
#1708=CARTESIAN_POINT('Origin',(-87.,-77.5,5.));
#1709=CARTESIAN_POINT('',(-85.,-77.5,5.));
#1710=CARTESIAN_POINT('Origin',(-87.,77.5,5.));
#1711=CARTESIAN_POINT('',(-85.,77.5,5.));
#1712=CARTESIAN_POINT('Origin',(-87.,77.5,5.));
#1713=CARTESIAN_POINT('',(-85.,77.5,5.));
#1714=CARTESIAN_POINT('Origin',(68.,77.5,5.));
#1715=CARTESIAN_POINT('',(70.,77.5,5.));
#1716=CARTESIAN_POINT('Origin',(68.,77.5,5.));
#1717=CARTESIAN_POINT('',(70.,77.5,5.));
#1718=CARTESIAN_POINT('Origin',(-27.5,-16.1862915010092,0.));
#1719=CARTESIAN_POINT('',(-73.3588952783595,-62.045186779375,5.));
#1720=CARTESIAN_POINT('',(-73.3588952783595,-62.045186779375,0.));
#1721=CARTESIAN_POINT('',(62.045186779371,73.3588952783741,5.));
#1722=CARTESIAN_POINT('Origin',(16.1862915010032,27.5,0.));
#1723=CARTESIAN_POINT('',(16.1862915010032,27.5,5.));
#1724=CARTESIAN_POINT('',(-27.5,27.5,5.));
#1725=CARTESIAN_POINT('',(16.1862915010032,27.5,0.));
#1726=CARTESIAN_POINT('Origin',(62.045186779371,73.3588952783741,0.));
#1727=CARTESIAN_POINT('',(62.045186779371,73.3588952783741,5.));
#1728=CARTESIAN_POINT('',(62.045186779371,73.3588952783741,5.));
#1729=CARTESIAN_POINT('',(62.045186779371,73.3588952783741,0.));
#1730=CARTESIAN_POINT('Origin',(77.5,77.5,0.));
#1731=CARTESIAN_POINT('',(73.3588952783742,62.045186779371,5.));
#1732=CARTESIAN_POINT('Origin',(77.5,77.5,5.));
#1733=CARTESIAN_POINT('',(73.3588952783742,62.045186779371,0.));
#1734=CARTESIAN_POINT('Origin',(27.5,16.1862915010031,0.));
#1735=CARTESIAN_POINT('',(-62.045186779375,-73.3588952783595,5.));
#1736=CARTESIAN_POINT('Origin',(16.1862915010152,-27.5,0.));
#1737=CARTESIAN_POINT('',(16.1862915010153,-27.5,5.));
#1738=CARTESIAN_POINT('',(62.0451867793749,-73.3588952783597,5.));
#1739=CARTESIAN_POINT('',(16.1862915010152,-27.5,0.));
#1740=CARTESIAN_POINT('Origin',(-16.1862915010091,-27.5,0.));
#1741=CARTESIAN_POINT('',(-16.1862915010091,-27.5,5.));
#1742=CARTESIAN_POINT('',(27.5,-27.5,5.));
#1743=CARTESIAN_POINT('',(-16.1862915010091,-27.5,0.));
#1744=CARTESIAN_POINT('Origin',(-62.045186779375,-73.3588952783595,0.));
#1745=CARTESIAN_POINT('',(-62.045186779375,-73.3588952783595,5.));
#1746=CARTESIAN_POINT('',(-62.045186779375,-73.3588952783595,5.));
#1747=CARTESIAN_POINT('',(-62.045186779375,-73.3588952783595,0.));
#1748=CARTESIAN_POINT('Origin',(-77.5,-77.5,0.));
#1749=CARTESIAN_POINT('Origin',(-77.5,-77.5,5.));
#1750=CARTESIAN_POINT('Origin',(0.,1.77635683940025E-14,5.));
#1751=UNCERTAINTY_MEASURE_WITH_UNIT(LENGTH_MEASURE(0.01),#1755,
'DISTANCE_ACCURACY_VALUE',
'Maximum model space distance between geometric entities at asserted c
onnectivities');
#1752=UNCERTAINTY_MEASURE_WITH_UNIT(LENGTH_MEASURE(0.01),#1755,
'DISTANCE_ACCURACY_VALUE',
'Maximum model space distance between geometric entities at asserted c
onnectivities');
#1753=(
GEOMETRIC_REPRESENTATION_CONTEXT(3)
GLOBAL_UNCERTAINTY_ASSIGNED_CONTEXT((#1751))
GLOBAL_UNIT_ASSIGNED_CONTEXT((#1755,#1757,#1758))
REPRESENTATION_CONTEXT('','3D')
);
#1754=(
GEOMETRIC_REPRESENTATION_CONTEXT(3)
GLOBAL_UNCERTAINTY_ASSIGNED_CONTEXT((#1752))
GLOBAL_UNIT_ASSIGNED_CONTEXT((#1755,#1757,#1758))
REPRESENTATION_CONTEXT('','3D')
);
#1755=(
LENGTH_UNIT()
NAMED_UNIT(*)
SI_UNIT(.MILLI.,.METRE.)
);
#1756=(
LENGTH_UNIT()
NAMED_UNIT(*)
SI_UNIT($,.METRE.)
);
#1757=(
NAMED_UNIT(*)
PLANE_ANGLE_UNIT()
SI_UNIT($,.RADIAN.)
);
#1758=(
NAMED_UNIT(*)
SI_UNIT($,.STERADIAN.)
SOLID_ANGLE_UNIT()
);
#1759=SHAPE_DEFINITION_REPRESENTATION(#1760,#1761);
#1760=PRODUCT_DEFINITION_SHAPE('',$,#1763);
#1761=SHAPE_REPRESENTATION('',(#1047),#1753);
#1762=PRODUCT_DEFINITION_CONTEXT('part definition',#1767,'design');
#1763=PRODUCT_DEFINITION('2026-09-27-11-14-15-266','Drone v1',#1764,#1762);
#1764=PRODUCT_DEFINITION_FORMATION('',$,#1769);
#1765=PRODUCT_RELATED_PRODUCT_CATEGORY('Drone v1','Drone v1',(#1769));
#1766=APPLICATION_PROTOCOL_DEFINITION('international standard',
'automotive_design',2009,#1767);
#1767=APPLICATION_CONTEXT(
'Core Data for Automotive Mechanical Design Process');
#1768=PRODUCT_CONTEXT('part definition',#1767,'mechanical');
#1769=PRODUCT('2026-09-27-11-14-15-266','Drone v1',$,(#1768));
#1770=PRESENTATION_STYLE_ASSIGNMENT((#1772));
#1771=PRESENTATION_STYLE_ASSIGNMENT((#1773));
#1772=SURFACE_STYLE_USAGE(.BOTH.,#1774);
#1773=SURFACE_STYLE_USAGE(.BOTH.,#1775);
#1774=SURFACE_SIDE_STYLE('',(#1776));
#1775=SURFACE_SIDE_STYLE('',(#1777));
#1776=SURFACE_STYLE_FILL_AREA(#1778);
#1777=SURFACE_STYLE_FILL_AREA(#1779);
#1778=FILL_AREA_STYLE('Steel - Satin',(#1780));
#1779=FILL_AREA_STYLE('Coating - Black Oxide',(#1781));
#1780=FILL_AREA_STYLE_COLOUR('Steel - Satin',#1782);
#1781=FILL_AREA_STYLE_COLOUR('Coating - Black Oxide',#1783);
#1782=COLOUR_RGB('Steel - Satin',0.627450980392157,0.627450980392157,0.627450980392157);
#1783=COLOUR_RGB('Coating - Black Oxide',0.172549019607843,0.172549019607843,
0.172549019607843);
ENDSEC;
END-ISO-10303-21;
